<svg xmlns="http://www.w3.org/2000/svg" viewBox="0 0 1000 639.18">
    <defs>
        <style>.cls-1{fill:#ae8bbf;}.cls-2{fill:#62506d;}.cls-3{fill:#edc15f;}.cls-4{fill:#f4f4f4;}</style>
    </defs>
    
    <path class="cls-1" d="M680.68,545.53v93.65H319.32V545.53a179.59,179.59,0,0,1,19.32-81.36c.57-1.13,1.14-2.22,1.7-3.31a181,181,0,0,1,212.89-88A176.82,176.82,0,0,1,586.75,387a181,181,0,0,1,41,30.77c2.63,2.63,5.18,5.3,7.61,8.09a181.86,181.86,0,0,1,24.34,35c.56,1.09,1.13,2.18,1.7,3.31A179.92,179.92,0,0,1,680.68,545.53Z"/>
    <circle class="cls-1" cx="500" cy="278.84" r="138.65"/>
    <path class="cls-2" d="M482.35,562.55v76.63H205.05V562.55a138.65,138.65,0,0,1,72.09-121.67,137.08,137.08,0,0,1,39.51-14.31,135.39,135.39,0,0,1,27.05-2.67,139.47,139.47,0,0,1,66.51,17,140,140,0,0,1,31.5,23.66A138.12,138.12,0,0,1,482.35,562.55Z"/>
    <circle class="cls-2" cx="343.68" cy="357.9" r="106.41"/>
    <path class="cls-1" d="M361.37,545.53v93.65H0V545.53A180.71,180.71,0,0,1,267.4,387a182.8,182.8,0,0,1,41,30.81c2.83,2.83,5.58,5.75,8.21,8.78a179.35,179.35,0,0,1,23.69,34.29c.61,1.13,1.17,2.26,1.74,3.39A179.88,179.88,0,0,1,361.37,545.53Z"/>
    <circle class="cls-1" cx="180.68" cy="278.84" r="138.65"/>
    <path class="cls-2" d="M797.26,562.55v76.63H520V562.55a138.66,138.66,0,0,1,72.1-121.67,137,137,0,0,1,43.31-15,134,134,0,0,1,23.25-2,139,139,0,0,1,66.51,17,138.84,138.84,0,0,1,72.14,121.67Z"/>
    <circle class="cls-2" cx="658.6" cy="357.9" r="106.41"/>
    <path class="cls-1" d="M1000,545.53v93.65H638.67V545.53A179.71,179.71,0,0,1,658,464.29c.53-1.13,1.13-2.26,1.74-3.39a179.32,179.32,0,0,1,24-34.7,179.3,179.3,0,0,1,80.14-52.64A181.15,181.15,0,0,1,906.07,387a182.57,182.57,0,0,1,41,30.81A180,180,0,0,1,1000,545.53Z"/>
    <circle class="cls-1" cx="819.33" cy="278.84" r="138.65"/>
    <rect class="cls-3" x="716.09" y="186.09" width="240.35" height="23.89" transform="translate(56.8 -163.89) rotate(11.58)"/>
    <polygon class="cls-3" points="889.35 138.54 871.91 24.13 810.87 122.45 754.19 0 732.38 106.37 724.83 143.25 960.28 191.51 967.84 154.63 989.64 48.26 889.35 138.54"/>
    <path class="cls-4" d="M859.4,333A53.93,53.93,0,1,1,764,291.85c11.47-14.14,23.27,26.19,42.63,28.82,22.14,3,45.86-29.3,51.37-9A53.71,53.71,0,0,1,859.4,333Z"/>
</svg>