<svg id="693714" viewBox="0 0 341 341" xmlns="http://www.w3.org/2000/svg" xmlns:xlink="http://www.w3.org/1999/xlink"><g transform="matrix(1,0,0,1,0,0)"><g id="693714" opacity="1" style="mix-blend-mode:normal"><g><defs><clipPath id="693714_clipPath" x="-50%" y="-50%" width="200%" height="200%"><path d="M0,0h341v0v341v0h-341v0v-341z" fill="white" clip-rule="nonzero"></path></clipPath></defs><g clip-path="url(#693714_clipPath)"><g transform="matrix(1,0,0,1,19,120)"><g id="693745" opacity="1" style="mix-blend-mode:normal"><g><defs><clipPath id="693745_clipPath" x="-50%" y="-50%" width="200%" height="200%"><path d="M0,0h304v0v100v0h-304v0v-100z" fill="white" clip-rule="nonzero"></path></clipPath></defs><g clip-path="url(#693745_clipPath)"><g transform="matrix(1,0,0,1,0,0)"><g id="I693745693728" opacity="1" style="mix-blend-mode:normal"><g><g><path id="I693745693728_fill_path" d="M57.7183,38.304c0,3.904 -0.896,7.488 -2.688,10.752c-1.792,3.2 -4.544,5.792 -8.256,7.776c-3.712,1.984 -8.32,2.976 -13.824,2.976h-10.176v24.192h-16.41605v-67.392h26.59205c5.376,0 9.92,0.928 13.632,2.784c3.712,1.856 6.496,4.416 8.3519,7.68c1.8561,3.264 2.7841,7.008 2.7841,11.232zM31.7023,46.752c3.136,0 5.472,-0.736 7.008,-2.208c1.536,-1.472 2.304,-3.552 2.304,-6.24c0,-2.688 -0.768,-4.768 -2.304,-6.24c-1.536,-1.472 -3.872,-2.208 -7.008,-2.208h-8.928v16.896zM100.632,84l-14.0155,-25.44h-3.936v25.44h-16.416v-67.392h27.552c5.312,0 9.8245,0.928 13.5365,2.784c3.776,1.856 6.592,4.416 8.447,7.68c1.857,3.2 2.785,6.784 2.785,10.752c0,4.48 -1.28,8.48 -3.84,12c-2.496,3.52 -6.209,6.016 -11.136,7.488l15.552,26.688zM82.6805,46.944h10.176c3.008,0 5.248,-0.736 6.72,-2.208c1.5365,-1.472 2.3045,-3.552 2.3045,-6.24c0,-2.56 -0.768,-4.576 -2.3045,-6.048c-1.472,-1.472 -3.712,-2.208 -6.72,-2.208h-10.176zM145.305,29.76v13.632h21.985v12.672h-21.985v14.784h24.864v13.152h-41.28v-67.392h41.28v13.152zM229.307,16.608v13.152h-17.856v54.24h-16.416v-54.24h-17.856v-13.152zM277.569,12.864c6.849,0 12.32,1.792 16.417,5.376c4.16,3.584 6.239,8.64 6.239,15.168c0,6.016 -1.983,10.72 -5.952,14.112c-3.903,3.328 -9.087,5.024 -15.552,5.088l-0.479,7.2h-14.401l-0.479,-17.856h5.759c4.928,0 8.672,-0.608 11.233,-1.824c2.624,-1.216 3.935,-3.424 3.935,-6.624c0,-2.24 -0.608,-4 -1.823,-5.28c-1.216,-1.28 -2.913,-1.92 -5.088,-1.92c-2.305,0 -4.097,0.672 -5.377,2.016c-1.28,1.28 -1.919,3.04 -1.919,5.28h-15.456c-0.129,-3.904 0.672,-7.424 2.4,-10.56c1.792,-3.136 4.415,-5.6 7.871,-7.392c3.521,-1.856 7.745,-2.784 12.672,-2.784zM271.233,84.768c-2.879,0 -5.247,-0.832 -7.104,-2.496c-1.792,-1.728 -2.688,-3.84 -2.688,-6.336c0,-2.56 0.896,-4.704 2.688,-6.432c1.857,-1.728 4.225,-2.592 7.104,-2.592c2.816,0 5.121,0.864 6.913,2.592c1.855,1.728 2.784,3.872 2.784,6.432c0,2.496 -0.929,4.608 -2.784,6.336c-1.792,1.664 -4.097,2.496 -6.913,2.496z" fill-rule="nonzero" fill="rgb(98, 80, 109)" fill-opacity="1" style="mix-blend-mode:NORMAL"></path></g></g></g></g><g transform="matrix(1,0,0,1,-1,100)"><g id="I693745693729" opacity="1" style="mix-blend-mode:normal"><g><g><path id="I693745693729_fill_path" d="M99.9224,37.92c-1.216,-2.24 -2.976,-3.936 -5.28,-5.088c-2.24,-1.216 -4.896,-1.824 -7.968,-1.824c-5.312,0 -9.568,1.76 -12.768,5.28c-3.2,3.456 -4.8,8.096 -4.8,13.92c0,6.208 1.664,11.072 4.992,14.592c3.392,3.456 8.032,5.184 13.92,5.184c4.032,0 7.424,-1.024 10.176,-3.072c2.8156,-2.048 4.8636,-4.992 6.1436,-8.832h-20.8316v-12.096h35.7116v15.264c-1.216,4.096 -3.296,7.904 -6.24,11.424c-2.88,3.52 -6.56,6.368 -11.04,8.544c-4.4796,2.176 -9.5356,3.264 -15.1676,3.264c-6.656,0 -12.608,-1.44 -17.856,-4.32c-5.184,-2.944 -9.248,-7.008 -12.192,-12.192c-2.88,-5.184 -4.32,-11.104 -4.32,-17.76c0,-6.656 1.44,-12.576 4.32,-17.76c2.944,-5.248 7.008,-9.312 12.192,-12.192c5.184,-2.944 11.104,-4.416 17.76,-4.416c8.064,0 14.8476,1.952 20.3516,5.856c5.568,3.904 9.248,9.312 11.04,16.224zM160.183,84.672c-6.336,0 -12.16,-1.472 -17.472,-4.416c-5.248,-2.944 -9.44,-7.04 -12.576,-12.288c-3.072,-5.312 -4.608,-11.264 -4.608,-17.856c0,-6.592 1.536,-12.512 4.608,-17.76c3.136,-5.248 7.328,-9.344 12.576,-12.288c5.312,-2.944 11.136,-4.416 17.472,-4.416c6.336,0 12.128,1.472 17.376,4.416c5.312,2.944 9.472,7.04 12.48,12.288c3.072,5.248 4.608,11.168 4.608,17.76c0,6.592 -1.536,12.544 -4.608,17.856c-3.072,5.248 -7.232,9.344 -12.48,12.288c-5.248,2.944 -11.04,4.416 -17.376,4.416zM160.183,69.696c5.376,0 9.664,-1.792 12.864,-5.376c3.264,-3.584 4.896,-8.32 4.896,-14.208c0,-5.952 -1.632,-10.688 -4.896,-14.208c-3.2,-3.584 -7.488,-5.376 -12.864,-5.376c-5.44,0 -9.792,1.76 -13.056,5.28c-3.2,3.52 -4.8,8.288 -4.8,14.304c0,5.952 1.6,10.72 4.8,14.304c3.264,3.52 7.616,5.28 13.056,5.28zM245.724,14.208l-1.92,45.984h-13.92l-1.92,-45.984zM237.084,84.768c-2.88,0 -5.248,-0.832 -7.104,-2.496c-1.792,-1.728 -2.688,-3.84 -2.688,-6.336c0,-2.56 0.896,-4.704 2.688,-6.432c1.856,-1.728 4.224,-2.592 7.104,-2.592c2.816,0 5.12,0.864 6.912,2.592c1.856,1.728 2.784,3.872 2.784,6.432c0,2.496 -0.928,4.608 -2.784,6.336c-1.792,1.664 -4.096,2.496 -6.912,2.496z" fill-rule="nonzero" fill="rgb(98, 80, 109)" fill-opacity="1" style="mix-blend-mode:NORMAL"></path></g></g></g></g></g></g></g></g></g></g></g></g><animateTransform href="#I693745693728" attributeName="transform" type="translate" values="0 0;0 0;0 -115.473;0 -97.59949999999999;0 -100;0 -100" dur="2.5s" repeatCount="indefinite" calcMode="spline" keyTimes="0;0.4;0.51;0.63;0.7;1" keySplines="0.33 0 0.67 1;0.33 0 0.67 1;0.33 0 0.67 1;0.33 0 0.67 1;0.33 0 0.67 1" additive="sum" fill="freeze"></animateTransform><animateTransform href="#I693745693729" attributeName="transform" type="translate" values="0 0;0 0;0 -115.473;0 -97.59949999999999;0 -100;0 -100" dur="2.5s" repeatCount="indefinite" calcMode="spline" keyTimes="0;0.4;0.51;0.63;0.7;1" keySplines="0.33 0 0.67 1;0.33 0 0.67 1;0.33 0 0.67 1;0.33 0 0.67 1;0.33 0 0.67 1" additive="sum" fill="freeze"></animateTransform></svg>