<svg width="32" height="35" viewBox="0 0 32 35" fill="none" xmlns="http://www.w3.org/2000/svg">
<g id="Frame 20">
<rect id="Rectangle 61" x="1.5" y="4.5" width="29" height="29" rx="5.5" stroke="#62506D" stroke-width="3"/>
<line id="Line 18" x1="3" y1="13.5" x2="29" y2="13.5" stroke="#62506D" stroke-width="3"/>
<path id="Line 19" d="M9 2L9 7" stroke="#62506D" stroke-width="3" stroke-linecap="round"/>
<path id="Line 20" d="M23 2L23 7" stroke="#62506D" stroke-width="3" stroke-linecap="round"/>
<path id="Star 2" d="M15.6307 17.1194C15.7482 16.7634 16.2518 16.7634 16.3693 17.1194L17.5005 20.5483C17.5529 20.707 17.7009 20.8145 17.8681 20.8153L21.4786 20.8316C21.8536 20.8333 22.0092 21.3123 21.7069 21.534L18.7954 23.6694C18.6606 23.7683 18.6041 23.9423 18.655 24.1015L19.7553 27.5404C19.8695 27.8975 19.4621 28.1936 19.1577 27.9746L16.2272 25.8655C16.0915 25.7678 15.9085 25.7678 15.7728 25.8655L12.8423 27.9746C12.5379 28.1936 12.1305 27.8975 12.2447 27.5404L13.345 24.1015C13.3959 23.9423 13.3394 23.7683 13.2046 23.6694L10.2931 21.534C9.99078 21.3123 10.1464 20.8333 10.5214 20.8316L14.1319 20.8153C14.2991 20.8145 14.4471 20.707 14.4995 20.5483L15.6307 17.1194Z" fill="#EDC15F"/>
</g>
</svg>
