<svg width="32" height="32" viewBox="0 0 32 32" fill="none" xmlns="http://www.w3.org/2000/svg">
<rect x="1.5" y="1.5" width="29" height="29" rx="5.5" stroke="#62506D" stroke-width="3"/>
<path d="M16.0636 12.7858C15.6455 13.2219 15.6455 13.9247 16.0636 14.3607C16.4875 14.8026 17.1792 14.8026 17.603 14.3607L19.9167 11.9483V23.1311C19.9167 23.7391 20.3919 24.25 21 24.25C21.6081 24.25 22.0833 23.7391 22.0833 23.1311V11.9483L24.397 14.3607C24.8208 14.8026 25.5125 14.8026 25.9364 14.3607C26.3545 13.9247 26.3545 13.2219 25.9364 12.7858L21.9022 8.57947C21.4101 8.06645 20.5899 8.06645 20.0978 8.57947L16.0636 12.7858Z" fill="#62506D" stroke="#62506D" stroke-width="0.5" stroke-linecap="round"/>
<path d="M15.9364 19.2142C16.3545 18.7781 16.3545 18.0753 15.9364 17.6393C15.5125 17.1974 14.8208 17.1974 14.397 17.6393L12.0833 20.0517V8.86889C12.0833 8.26089 11.6081 7.75 11 7.75C10.3919 7.75 9.91667 8.26089 9.91667 8.86889V20.0517L7.60302 17.6393C7.17918 17.1974 6.48749 17.1974 6.06365 17.6393C5.64545 18.0753 5.64545 18.7781 6.06365 19.2142L10.0978 23.4205C10.5899 23.9336 11.4101 23.9336 11.9022 23.4205L15.9364 19.2142Z" fill="#62506D" stroke="#62506D" stroke-width="0.5" stroke-linecap="round"/>
</svg>
