<svg width="24" height="25" viewBox="0 0 24 25" fill="none" xmlns="http://www.w3.org/2000/svg">
<path d="M3.20244 10.8965C3.92105 6.01311 8.46235 2.63689 13.3457 3.3555C15.0119 3.60066 16.5748 4.31158 17.8545 5.40635L16.7025 6.55836C16.3164 6.94457 16.3165 7.57071 16.7027 7.95683C16.8881 8.14215 17.1395 8.2463 17.4016 8.24635H21.9366C22.4827 8.24635 22.9254 7.80363 22.9254 7.2575V2.72255C22.9253 2.17642 22.4825 1.73379 21.9363 1.73389C21.6742 1.73393 21.4228 1.83809 21.2374 2.02341L19.9518 3.30892C15.0495 -1.06102 7.53288 -0.629471 3.16294 4.27283C1.6148 6.00954 0.610142 8.16227 0.273434 10.4643C0.140679 11.2805 0.694644 12.0497 1.51074 12.1825C1.58425 12.1944 1.65851 12.2009 1.733 12.2018C2.47965 12.1937 3.10639 11.637 3.20244 10.8965Z" fill="#62506D"/>
<path d="M22.3627 12.2018C21.6161 12.2098 20.9894 12.7666 20.8933 13.5071C20.1747 18.3905 15.6334 21.7667 10.75 21.0481C9.0839 20.8029 7.52096 20.092 6.24125 18.9973L7.39326 17.8453C7.77938 17.459 7.77929 16.8329 7.39303 16.4468C7.20766 16.2615 6.95625 16.1573 6.69412 16.1573H2.15926C1.61313 16.1573 1.17041 16.6 1.17041 17.1461V21.6811C1.17055 22.2272 1.61336 22.6698 2.15949 22.6697C2.42162 22.6697 2.67304 22.5655 2.8584 22.3802L4.14391 21.0947C9.04505 25.4651 16.5612 25.0349 20.9316 20.1337C22.4806 18.3966 23.4857 16.2432 23.8223 13.9402C23.9556 13.1242 23.4022 12.3546 22.5862 12.2213C22.5123 12.2092 22.4376 12.2026 22.3627 12.2018Z" fill="#62506D"/>
</svg>
