<svg xmlns="http://www.w3.org/2000/svg" xmlns:xlink="http://www.w3.org/1999/xlink" viewBox="0 0 3000 3000">
    <defs>
        <style>.cls-1{fill:#fff;}.cls-2{mask:url(#mask);}.cls-3{fill:#62506d;}.cls-4{fill:#ad8abe;}</style>

        <mask id="mask" x="-427.85" y="-862.39" width="3855.65" height="3863.39" maskUnits="userSpaceOnUse">
            <circle class="cls-1" cx="1499.98" cy="1065.43" r="1927.82"/>
        </mask>
    </defs>

    <g class="cls-2">
        <path class="cls-3" d="M1734.82,2540.71v457.61H-31V2540.71c0-333.92,185.53-624.57,459-774.54a882.76,882.76,0,0,1,847.64-.19,892.59,892.59,0,0,1,200.55,150.56c13.84,13.83,27.27,28,40.11,42.87A878,878,0,0,1,1632.08,2127c3,5.53,5.73,11.06,8.5,16.59A878.73,878.73,0,0,1,1734.82,2540.71Z"/>
        <circle class="cls-3" cx="851.9" cy="1157.54" r="677.53"/>
        <path class="cls-3" d="M3031,2540.71v457.61H1265.18V2540.71c0-333.92,185.53-624.57,459-774.54a882.8,882.8,0,0,1,847.64-.19,892.81,892.81,0,0,1,200.55,150.56c13.83,13.83,27.27,28,40.11,42.87A878.48,878.48,0,0,1,2928.26,2127c3,5.53,5.73,11.06,8.49,16.59A878.61,878.61,0,0,1,3031,2540.71Z"/>
        <circle class="cls-3" cx="2148.08" cy="1157.54" r="677.53"/>
        <path class="cls-4" d="M2582.81,2454.31V3001H417.19V2454.31c0-398.92,227.54-746.14,562.91-925.3,154.12-82.38,331.25-129.36,519.78-129.36a1101.43,1101.43,0,0,1,519.78,129.12,1093.37,1093.37,0,0,1,246,179.87c17,16.52,33.44,33.52,49.19,51.22a1049,1049,0,0,1,142,200.17c3.64,6.61,7,13.22,10.42,19.83A1027.61,1027.61,0,0,1,2582.81,2454.31Z"/>
        <ellipse class="cls-4" cx="1499.99" cy="810.41" rx="830.92" ry="809.41"/>
    </g>
</svg>