<svg xmlns="http://www.w3.org/2000/svg" xmlns:xlink="http://www.w3.org/1999/xlink" viewBox="0 0 3000 3000">
    <defs>
        <style>.cls-1{fill:#fff;}.cls-2{fill:#f4f4f4;}.cls-3{mask:url(#mask);}.cls-4{fill:#ad8abe;}.cls-5{fill:#edc15f;}</style>
        
        <mask id="mask" x="-66.22" y="-65.8" width="3131.6" height="3131.6" maskUnits="userSpaceOnUse">
            <circle class="cls-1" cx="1499.59" cy="1500" r="1565.8"/>
        </mask>
    </defs>

    <path class="cls-2" d="M2999.58,1500c0,530.85-275.76,997.31-691.86,1263.91C2074.49,2913.34,1797.16,3000,1499.59,3000s-574.88-86.65-808.12-236.08C275.37,2497.33-.42,2030.86-.42,1500-.42,671.57,671.17,0,1499.59,0S2999.58,671.57,2999.58,1500Z"/>
    
    <g class="cls-3">
        <path class="cls-4" d="M2221.46,2307.81c-2.54-4.93-5.07-9.86-7.78-14.79a782.31,782.31,0,0,0-106-149.4c-11.75-13.21-24-25.89-36.71-38.22a816,816,0,0,0-183.38-134.15h0c141.53-110.72,232.12-280.68,232.12-471.25,0-333.63-277.64-604.08-620.13-604.08S879.45,1166.37,879.45,1500c0,190.6,90.62,360.59,232.19,471.3h0l-.05,0C861.29,2105,691.47,2364.18,691.47,2661.91v102C924.71,2913.35,1202,3000,1499.59,3000s574.9-86.66,808.13-236.09v-102A767,767,0,0,0,2221.46,2307.81Z"/>
        <rect class="cls-5" x="1083.21" y="1038.12" width="1007.6" height="100.16" transform="translate(250.85 -296.52) rotate(11.58)"/>
        <polygon class="cls-5" points="1809.56 838.77 1736.46 359.13 1480.54 771.33 1242.92 257.96 1151.52 703.89 1119.82 858.5 2106.9 1060.83 2138.59 906.22 2229.99 460.3 1809.56 838.77"/>
    </g>
</svg>