<svg xmlns="http://www.w3.org/2000/svg" xmlns:xlink="http://www.w3.org/1999/xlink" viewBox="0 0 3000 3000">
    <defs>
        <style>.cls-1{fill:#fff;}.cls-2{fill:#f4f4f4;}.cls-3{mask:url(#mask);}.cls-4{fill:#62506d;}.cls-5{fill:#ad8abe;}</style>
        
        <mask id="mask" x="-1.12" y="0" width="3000" height="3001.4" maskUnits="userSpaceOnUse">
            <circle class="cls-1" cx="1498.88" cy="1500" r="1500"/>
        </mask>
    </defs>

    <circle class="cls-2" cx="1498.88" cy="1500" r="1500"/>

    <g class="cls-3">
        <path class="cls-4" d="M1480.44,2651v350.4H128.3V2651c0-255.69,142.07-478.25,351.46-593.08a676.09,676.09,0,0,1,649.07-.16,683.93,683.93,0,0,1,153.56,115.29c10.59,10.59,20.88,21.49,30.72,32.83a673,673,0,0,1,88.65,128.3c2.27,4.24,4.39,8.48,6.51,12.71A672.79,672.79,0,0,1,1480.44,2651Z"/>
        <circle class="cls-4" cx="804.36" cy="1653.13" r="518.8"/>
        <path class="cls-4" d="M2832.58,2651v350.4H1480.44V2651c0-255.69,142.07-478.25,351.46-593.08a676.09,676.09,0,0,1,649.07-.16,683.93,683.93,0,0,1,153.56,115.29c10.59,10.59,20.88,21.49,30.72,32.83a673.55,673.55,0,0,1,88.66,128.3c2.27,4.24,4.38,8.48,6.5,12.71A672.79,672.79,0,0,1,2832.58,2651Z"/>
        <circle class="cls-4" cx="2156.5" cy="1653.13" r="518.8"/>
        <path class="cls-5" d="M2242.31,2616.75V3001.4H718.55V2616.75c0-280.69,160.1-525,396.07-651.06,108.44-58,233.08-91,365.72-91a774.74,774.74,0,0,1,365.73,90.85,769.19,769.19,0,0,1,173,126.55c11.94,11.63,23.53,23.59,34.61,36.05A737.67,737.67,0,0,1,2153.65,2269c2.55,4.65,4.94,9.3,7.33,14A723.07,723.07,0,0,1,2242.31,2616.75Z"/>
        <ellipse class="cls-5" cx="1480.42" cy="1521.34" rx="584.65" ry="569.51"/>
    </g>
</svg>