<svg xmlns="http://www.w3.org/2000/svg" xmlns:xlink="http://www.w3.org/1999/xlink" viewBox="0 0 3000 3000">
    <defs>
        <style>.cls-1{fill:#fff;}.cls-2{mask:url(#mask);}.cls-3{fill:#ad8abe;}.cls-4{fill:#edc15f;}</style>

        <mask id="mask" x="-170.53" y="-345.42" width="3341.03" height="3345.42" maskUnits="userSpaceOnUse">
            <circle class="cls-1" cx="1499.99" cy="1325.1" r="1670.51"/>
        </mask>
    </defs>
    
    <g class="cls-2">
        <path class="cls-3" d="M2270.14,2186.93c-2.7-5.26-5.41-10.52-8.3-15.79a835.27,835.27,0,0,0-113.07-159.38c-12.54-14.09-25.66-27.63-39.16-40.78A870.56,870.56,0,0,0,1914,1827.86c151-118.12,247.64-299.44,247.64-502.76,0-355.94-296.21-644.48-661.61-644.48S838.38,969.16,838.38,1325.1c0,203.35,96.69,384.7,247.72,502.82l-.06,0c-267,142.65-448.21,419.13-448.21,736.76V3000H2362.17V2564.71A818.35,818.35,0,0,0,2270.14,2186.93Z"/>
        <rect class="cls-4" x="1055.77" y="832.33" width="1074.98" height="106.86" transform="translate(210.32 -301.9) rotate(11.58)"/>
        <polygon class="cls-4" points="1830.7 619.65 1752.7 107.93 1479.67 547.7 1226.16 0 1128.64 475.74 1094.83 640.7 2147.91 856.56 2181.73 691.61 2279.24 215.87 1830.7 619.65"/>
    </g>
</svg>