<svg width="31" height="32" viewBox="0 0 31 32" fill="none" xmlns="http://www.w3.org/2000/svg">
<g id="Frame 14">
<g id="Union">
<mask id="path-1-outside-1_891_2762" maskUnits="userSpaceOnUse" x="-0.634155" y="0" width="32" height="32" fill="black">
<rect fill="white" x="-0.634155" width="32" height="32"/>
<path fill-rule="evenodd" clip-rule="evenodd" d="M18.524 4C18.524 3.44772 18.0762 3 17.524 3H13.8365C13.2842 3 12.8365 3.44772 12.8365 4V5.96007C12.8365 6.39523 12.5528 6.7754 12.1499 6.93991C11.2518 7.30666 10.4236 7.80914 9.69071 8.42187C9.34578 8.71024 8.85773 8.77735 8.46837 8.55256L6.7098 7.53725C6.2315 7.2611 5.61991 7.42498 5.34377 7.90327L3.50002 11.0967C3.22388 11.575 3.38776 12.1866 3.86605 12.4628L5.87132 13.6205C6.23505 13.8305 6.42357 14.245 6.38224 14.663C6.35196 14.9691 6.33646 15.2796 6.33646 15.5938C6.33646 16.1402 6.38337 16.6757 6.47337 17.1964C6.54991 17.6392 6.364 18.095 5.97486 18.3197L3.86601 19.5372C3.38772 19.8134 3.22384 20.425 3.49999 20.9033L5.34374 24.0967C5.61988 24.575 6.23147 24.7389 6.70976 24.4628L9.06706 23.1018C9.43131 22.8915 9.88524 22.9359 10.2266 23.1817C10.8194 23.6085 11.4643 23.9676 12.1499 24.2476C12.5528 24.4121 12.8365 24.7923 12.8365 25.2274V28C12.8365 28.5523 13.2842 29 13.8365 29H17.524C18.0762 29 18.524 28.5523 18.524 28V25.2274C18.524 24.7923 18.8076 24.4121 19.2105 24.2476C19.8961 23.9676 20.541 23.6085 21.1338 23.1817C21.4752 22.9359 21.9291 22.8915 22.2934 23.1018L24.6507 24.4628C25.1289 24.7389 25.7405 24.575 26.0167 24.0967L27.8604 20.9033C28.1366 20.425 27.9727 19.8134 27.4944 19.5372L25.3856 18.3197C24.9964 18.095 24.8105 17.6392 24.887 17.1964C24.9771 16.6757 25.024 16.1402 25.024 15.5938C25.024 15.2796 25.0085 14.9691 24.9782 14.663C24.9368 14.245 25.1254 13.8305 25.4891 13.6205L27.4944 12.4628C27.9727 12.1866 28.1365 11.575 27.8604 11.0967L26.0166 7.90326C25.7405 7.42497 25.1289 7.26109 24.6506 7.53723L22.892 8.55255C22.5027 8.77735 22.0146 8.71024 21.6697 8.42187C20.9368 7.80914 20.1086 7.30666 19.2105 6.93991C18.8076 6.7754 18.524 6.39523 18.524 5.96007V4Z"/>
</mask>
<path d="M19.2105 6.93991L20.3447 4.16257L19.2105 6.93991ZM27.4944 12.4628L25.9944 9.86468L27.4944 12.4628ZM27.8604 11.0967L30.4585 9.59673L27.8604 11.0967ZM25.4891 13.6205L26.9891 16.2186L25.4891 13.6205ZM25.3856 18.3197L23.8856 20.9178L25.3856 18.3197ZM24.887 17.1964L21.9309 16.6854L24.887 17.1964ZM27.8604 20.9033L30.4585 22.4033L27.8604 20.9033ZM27.4944 19.5372L25.9944 22.1353L27.4944 19.5372ZM24.6507 24.4628L23.1507 27.0608L24.6507 24.4628ZM26.0167 24.0967L28.6148 25.5967L26.0167 24.0967ZM21.1338 23.1817L22.8867 25.6163L21.1338 23.1817ZM22.2934 23.1018L20.7934 25.6999L22.2934 23.1018ZM19.2105 24.2476L20.3446 27.0249L19.2105 24.2476ZM12.1499 24.2476L13.2841 21.4702L12.1499 24.2476ZM3.86601 19.5372L2.36601 16.9392L3.86601 19.5372ZM3.49999 20.9033L0.90191 22.4033L3.49999 20.9033ZM6.38224 14.663L3.3968 14.3677L6.38224 14.663ZM9.69071 8.42187L7.76649 6.12027L9.69071 8.42187ZM8.46837 8.55256L9.96837 5.95448L8.46837 8.55256ZM12.1499 6.93991L11.0158 4.16257L12.1499 6.93991ZM22.892 8.55255L24.392 11.1506L22.892 8.55255ZM9.06706 23.1018L10.5671 25.6998L9.06706 23.1018ZM10.2266 23.1817L11.9795 20.7471L10.2266 23.1817ZM26.0166 7.90326L23.4186 9.40326L26.0166 7.90326ZM24.6506 7.53723L26.1506 10.1353L24.6506 7.53723ZM13.8365 6H17.524V0H13.8365V6ZM15.8365 5.96007V4H9.83646V5.96007H15.8365ZM11.6149 10.7235C12.1139 10.3063 12.6763 9.96545 13.2841 9.71726L11.0158 4.16257C9.82736 4.64787 8.73328 5.312 7.76649 6.12027L11.6149 10.7235ZM5.2098 10.1353L6.96837 11.1506L9.96837 5.95448L8.2098 4.93917L5.2098 10.1353ZM6.0981 12.5967L7.94185 9.40327L2.7457 6.40327L0.901946 9.59674L6.0981 12.5967ZM7.37132 11.0224L5.36605 9.86469L2.36605 15.0608L4.37132 16.2186L7.37132 11.0224ZM9.33646 15.5938C9.33646 15.3784 9.34708 15.1664 9.36767 14.9582L3.3968 14.3677C3.35684 14.7718 3.33646 15.1809 3.33646 15.5938H9.33646ZM9.42954 16.6854C9.36858 16.3327 9.33646 15.9682 9.33646 15.5938H3.33646C3.33646 16.3122 3.39816 17.0186 3.51721 17.7074L9.42954 16.6854ZM5.36601 22.1353L7.47486 20.9178L4.47486 15.7216L2.36601 16.9392L5.36601 22.1353ZM7.94181 22.5967L6.09806 19.4033L0.90191 22.4033L2.74566 25.5967L7.94181 22.5967ZM7.56706 20.5037L5.20976 21.8647L8.20976 27.0608L10.5671 25.6998L7.56706 20.5037ZM13.2841 21.4702C12.8201 21.2808 12.3826 21.0373 11.9795 20.7471L8.47367 25.6163C9.25623 26.1797 10.1085 26.6544 11.0158 27.0249L13.2841 21.4702ZM15.8365 28V25.2274H9.83646V28H15.8365ZM17.524 26H13.8365V32H17.524V26ZM15.524 25.2274V28H21.524V25.2274H15.524ZM19.3809 20.7471C18.9778 21.0373 18.5403 21.2808 18.0763 21.4702L20.3446 27.0249C21.2519 26.6544 22.1042 26.1797 22.8867 25.6163L19.3809 20.7471ZM26.1507 21.8647L23.7934 20.5037L20.7934 25.6999L23.1507 27.0608L26.1507 21.8647ZM25.2624 19.4033L23.4186 22.5967L28.6148 25.5967L30.4585 22.4033L25.2624 19.4033ZM23.8856 20.9178L25.9944 22.1353L28.9944 16.9392L26.8856 15.7216L23.8856 20.9178ZM22.024 15.5938C22.024 15.9682 21.9918 16.3327 21.9309 16.6854L27.8432 17.7074C27.9623 17.0186 28.024 16.3122 28.024 15.5938H22.024ZM21.9927 14.9582C22.0133 15.1664 22.024 15.3784 22.024 15.5938H28.024C28.024 15.1809 28.0036 14.7718 27.9636 14.3677L21.9927 14.9582ZM25.9944 9.86468L23.9891 11.0224L26.9891 16.2186L28.9944 15.0608L25.9944 9.86468ZM23.4186 9.40326L25.2623 12.5967L30.4585 9.59673L28.6147 6.40326L23.4186 9.40326ZM24.392 11.1506L26.1506 10.1353L23.1506 4.93916L21.392 5.95447L24.392 11.1506ZM18.0763 9.71726C18.6841 9.96545 19.2465 10.3063 19.7455 10.7235L23.5939 6.12026C22.6271 5.31199 21.5331 4.64787 20.3447 4.16257L18.0763 9.71726ZM15.524 4V5.96007H21.524V4H15.524ZM20.3447 4.16257C20.9423 4.40661 21.524 5.04386 21.524 5.96007H15.524C15.524 7.74659 16.673 9.14419 18.0763 9.71726L20.3447 4.16257ZM28.9944 15.0608C30.9075 13.9563 31.563 11.5099 30.4585 9.59673L25.2623 12.5967C24.71 11.6401 25.0378 10.417 25.9944 9.86468L28.9944 15.0608ZM27.9636 14.3677C28.0254 14.9929 27.7536 15.7772 26.9891 16.2186L23.9891 11.0224C22.4971 11.8838 21.8482 13.4971 21.9927 14.9582L27.9636 14.3677ZM26.8856 15.7216C27.7056 16.1951 27.9562 17.0536 27.8432 17.7074L21.9309 16.6854C21.6648 18.2248 22.2873 19.995 23.8856 20.9178L26.8856 15.7216ZM30.4585 22.4033C31.5631 20.4901 30.9076 18.0437 28.9944 16.9392L25.9944 22.1353C25.0378 21.583 24.7101 20.3599 25.2624 19.4033L30.4585 22.4033ZM23.1507 27.0608C25.0638 28.1654 27.5102 27.5099 28.6148 25.5967L23.4186 22.5967C23.9709 21.6402 25.1941 21.3124 26.1507 21.8647L23.1507 27.0608ZM22.8867 25.6163C22.3757 25.9843 21.5591 26.1419 20.7934 25.6999L23.7934 20.5037C22.2992 19.641 20.5747 19.8876 19.3809 20.7471L22.8867 25.6163ZM21.524 25.2274C21.524 26.1436 20.9423 26.7809 20.3446 27.0249L18.0763 21.4702C16.673 22.0433 15.524 23.4409 15.524 25.2274H21.524ZM17.524 32C19.7331 32 21.524 30.2091 21.524 28H15.524C15.524 26.8954 16.4194 26 17.524 26V32ZM9.83646 28C9.83646 30.2091 11.6273 32 13.8365 32V26C14.941 26 15.8365 26.8954 15.8365 28H9.83646ZM11.0158 27.0249C10.4181 26.7809 9.83646 26.1436 9.83646 25.2274H15.8365C15.8365 23.4409 14.6875 22.0433 13.2841 21.4702L11.0158 27.0249ZM2.74566 25.5967C3.85023 27.5099 6.29659 28.1654 8.20976 27.0608L5.20976 21.8647C6.16635 21.3124 7.38953 21.6401 7.94181 22.5967L2.74566 25.5967ZM2.36601 16.9392C0.452841 18.0437 -0.202659 20.4901 0.90191 22.4033L6.09806 19.4033C6.65035 20.3598 6.3226 21.583 5.36601 22.1353L2.36601 16.9392ZM3.51721 17.7074C3.4042 17.0535 3.65484 16.1951 4.47486 15.7216L7.47486 20.9178C9.07317 19.995 9.69562 18.2248 9.42954 16.6854L3.51721 17.7074ZM4.37132 16.2186C3.60678 15.7772 3.33497 14.993 3.3968 14.3677L9.36767 14.9582C9.51217 13.4971 8.86331 11.8838 7.37132 11.0224L4.37132 16.2186ZM0.901946 9.59674C-0.202625 11.5099 0.45288 13.9563 2.36605 15.0608L5.36605 9.86469C6.32263 10.417 6.65038 11.6402 6.0981 12.5967L0.901946 9.59674ZM8.2098 4.93917C6.29663 3.8346 3.85027 4.4901 2.7457 6.40327L7.94185 9.40327C7.38956 10.3599 6.16638 10.6876 5.2098 10.1353L8.2098 4.93917ZM7.76649 6.12027C8.27773 5.69285 9.14816 5.48093 9.96837 5.95448L6.96837 11.1506C8.56729 12.0738 10.4138 11.7276 11.6149 10.7235L7.76649 6.12027ZM9.83646 5.96007C9.83646 5.04387 10.4181 4.40661 11.0158 4.16257L13.2841 9.71726C14.6874 9.14419 15.8365 7.74659 15.8365 5.96007H9.83646ZM21.392 5.95447C22.2122 5.48093 23.0827 5.69285 23.5939 6.12026L19.7455 10.7235C20.9466 11.7276 22.7931 12.0738 24.392 11.1506L21.392 5.95447ZM17.524 6C16.4194 6 15.524 5.10457 15.524 4H21.524C21.524 1.79086 19.7331 0 17.524 0V6ZM10.5671 25.6998C9.80136 26.1419 8.98473 25.9842 8.47367 25.6163L11.9795 20.7471C10.7858 19.8876 9.06125 19.641 7.56706 20.5037L10.5671 25.6998ZM28.6147 6.40326C27.5102 4.49009 25.0638 3.83459 23.1506 4.93916L26.1506 10.1353C25.194 10.6876 23.9709 10.3598 23.4186 9.40326L28.6147 6.40326ZM13.8365 0C11.6273 0 9.83646 1.79086 9.83646 4H15.8365C15.8365 5.10457 14.941 6 13.8365 6V0Z" fill="#62506D" mask="url(#path-1-outside-1_891_2762)"/>
</g>
<circle id="Ellipse 61" cx="16" cy="16" r="4" stroke="#62506D" stroke-width="3"/>
</g>
</svg>
