<svg width="36" height="36" viewBox="0 0 36 36" fill="none" xmlns="http://www.w3.org/2000/svg">
<g id="Timer">
<path id="Star 1" d="M17.0503 2.87853C17.3524 1.96293 18.6476 1.96293 18.9497 2.87853L21.8585 11.6955C21.9931 12.1038 22.3737 12.3803 22.8036 12.3822L32.0879 12.424C33.052 12.4284 33.4523 13.6602 32.6748 14.2304L25.1883 19.7214C24.8416 19.9757 24.6962 20.423 24.8272 20.8325L27.6565 29.6753C27.9503 30.5936 26.9024 31.3549 26.1199 30.7917L18.5841 25.3684C18.2352 25.1173 17.7648 25.1173 17.4159 25.3684L9.88011 30.7917C9.09756 31.3549 8.04974 30.5936 8.34354 29.6753L11.1728 20.8325C11.3038 20.423 11.1584 19.9757 10.8117 19.7214L3.32517 14.2304C2.54772 13.6602 2.94796 12.4284 3.91209 12.424L13.1964 12.3822C13.6263 12.3803 14.0069 12.1038 14.1415 11.6955L17.0503 2.87853Z" fill="#EDC15F"/>
</g>
</svg>
