<svg width="34" height="34" viewBox="0 0 34 34" fill="none" xmlns="http://www.w3.org/2000/svg">
<circle cx="16" cy="18" r="14.5" stroke="#62506D" stroke-width="3"/>
<circle cx="16" cy="18" r="8.5" stroke="#62506D" stroke-width="3"/>
<circle cx="16" cy="18" r="2.5" stroke="#62506D" stroke-width="3"/>
<path d="M23.4853 7.34607L23.4853 10.0709L26.2102 10.0709C26.2765 10.0709 26.3401 10.0446 26.387 9.99772L30.5559 5.82831C30.556 5.82818 30.5561 5.82831 30.5559 5.82831L27.728 5.82831L27.7276 3.00022C27.7276 3.00004 27.7277 3.00009 27.7276 3.00022L23.5585 7.1693C23.5117 7.21618 23.4853 7.27977 23.4853 7.34607Z" fill="#62506D"/>
<path d="M16.4142 17.142L23.4853 10.0709M23.4853 10.0709L23.4853 7.34607C23.4853 7.27977 23.5117 7.21618 23.5585 7.1693L27.7276 3.00022M23.4853 10.0709L26.2102 10.0709C26.2765 10.0709 26.3401 10.0446 26.387 9.99772L30.5559 5.82831M27.7276 3.00022L27.728 5.82831L30.5559 5.82831M27.7276 3.00022C27.7277 3.00009 27.7276 3.00004 27.7276 3.00022ZM30.5559 5.82831C30.5561 5.82831 30.556 5.82818 30.5559 5.82831Z" stroke="#E0CEE6" stroke-width="5" stroke-linecap="round"/>
<path d="M23.4853 7.34607L23.4853 10.0709L26.2102 10.0709C26.2765 10.0709 26.3401 10.0446 26.387 9.99772L30.5559 5.82831C30.556 5.82818 30.5561 5.82831 30.5559 5.82831L27.728 5.82831L27.7276 3.00022C27.7276 3.00004 27.7277 3.00009 27.7276 3.00022L23.5585 7.1693C23.5117 7.21618 23.4853 7.27977 23.4853 7.34607Z" fill="#62506D"/>
<path d="M16.4142 17.142L23.4853 10.0709M23.4853 10.0709L23.4853 7.34607C23.4853 7.27977 23.5117 7.21618 23.5585 7.1693L27.7276 3.00022M23.4853 10.0709L26.2102 10.0709C26.2765 10.0709 26.3401 10.0446 26.387 9.99772L30.5559 5.82831M27.7276 3.00022L27.728 5.82831L30.5559 5.82831M27.7276 3.00022C27.7277 3.00009 27.7276 3.00004 27.7276 3.00022ZM30.5559 5.82831C30.5561 5.82831 30.556 5.82818 30.5559 5.82831Z" stroke="#62506D" stroke-width="2" stroke-linecap="round"/>
</svg>
