<svg viewBox="0 0 50 49" xmlns="http://www.w3.org/2000/svg">
    <path fill-rule="evenodd" clip-rule="evenodd" d="M18.3815 4.10422C21.2662 -1.36807 28.7338 -1.36807 31.6185 4.10422L49.0363 37.1456C51.8399 42.464 48.1908 49 42.4178 49H7.58221C1.80924 49 -1.83992 42.4641 0.963659 37.1456L18.3815 4.10422ZM22.1729 12.2881C22.0639 10.5646 23.361 9.1034 25 9.1034C26.639 9.1034 27.9361 10.5646 27.8271 12.2881L26.615 31.449C26.5584 32.3451 25.8521 33.0414 25 33.0414C24.1479 33.0414 23.4416 32.3451 23.385 31.449L22.1729 12.2881ZM25 42.6165C26.6726 42.6165 28.0285 41.1876 28.0285 39.4248C28.0285 37.6621 26.6726 36.2331 25 36.2331C23.3274 36.2331 21.9715 37.6621 21.9715 39.4248C21.9715 41.1876 23.3274 42.6165 25 42.6165Z" fill="#EDC15F"/>
</svg>
