<svg width="32" height="32" viewBox="0 0 32 32" fill="none" xmlns="http://www.w3.org/2000/svg">
<g id="Frame 21">
<g id="Group 8">
<path id="Intersect" fill-rule="evenodd" clip-rule="evenodd" d="M29.696 13.1457C29.1102 13.7315 28.1642 13.726 27.5314 13.1914C24.4363 10.5764 20.4352 9 16.066 9C11.6968 9 7.69572 10.5764 4.60057 13.1914C3.96776 13.7261 3.02181 13.7315 2.43602 13.1457V13.1457C1.85024 12.5599 1.84687 11.6056 2.47338 11.0636C4.1531 9.61045 6.05752 8.43389 8.11548 7.58146C10.6361 6.53738 13.3377 6 16.066 6C18.7943 6 21.4959 6.53738 24.0165 7.58145C26.5153 8.61648 28.7877 10.1294 30.7064 12.035V12.035C30.7342 12.0626 30.7342 12.1075 30.7065 12.1352L29.696 13.1457ZM25.9742 14.7493C26.6133 15.2765 26.6091 16.2326 26.0233 16.8184V16.8184C25.4375 17.4042 24.4926 17.396 23.8417 16.8836C21.7014 15.1989 19.0011 14.1939 16.066 14.1939C13.1309 14.1939 10.4306 15.1989 8.29033 16.8836C7.63937 17.396 6.69447 17.4042 6.10868 16.8184V16.8184C5.5229 16.2326 5.51871 15.2765 6.1578 14.7494C8.85077 12.5281 12.3026 11.1939 16.066 11.1939C19.8294 11.1939 23.2812 12.5281 25.9742 14.7493ZM22.2783 18.4493C22.9419 18.9452 22.9364 19.9052 22.3506 20.491V20.491C21.7649 21.0768 20.8212 21.0612 20.1298 20.6049C18.964 19.8356 17.5673 19.3878 16.066 19.3878C14.5647 19.3878 13.168 19.8356 12.0022 20.605C11.3108 21.0612 10.3671 21.0768 9.78134 20.491V20.491C9.19555 19.9052 9.19013 18.9452 9.85373 18.4493C11.5864 17.1545 13.7366 16.3878 16.066 16.3878C18.3953 16.3878 20.5456 17.1545 22.2783 18.4493Z" fill="#F4F4F4"/>
<circle id="Ellipse 74" cx="15.8754" cy="24" r="2" fill="#F4F4F4"/>
</g>
<g id="Group 9">
<path id="Line 21" d="M23 24L6.93031 4.84889" stroke="#F4F4F4" stroke-width="3" stroke-linecap="round"/>
<path id="Line 22" d="M25.2982 22.0716L9.22847 2.92051" stroke="#AE8BBF" stroke-width="3" stroke-linecap="round"/>
</g>
</g>
</svg>
