<svg width="88" height="113" viewBox="0 0 88 113" fill="none" xmlns="http://www.w3.org/2000/svg">
<path fill-rule="evenodd" clip-rule="evenodd" d="M2.88545e-05 96.2568C6.74623 78.5666 23.8707 66 43.9302 66C63.9897 66 81.1141 78.5666 87.8603 96.2568C76.1921 106.671 60.8003 113 43.9302 113C27.0601 113 11.6683 106.671 2.88545e-05 96.2568Z" fill="#EDC15F"/>
<path fill-rule="evenodd" clip-rule="evenodd" d="M26.0701 69.5123C31.5764 67.2485 37.6075 66 43.9301 66C50.1093 66 56.01 67.1924 61.4146 69.3598C59.8408 77.6952 52.5205 84 43.7276 84C34.9884 84 27.7038 77.772 26.0701 69.5123Z" fill="#DD9F76"/>
<path fill-rule="evenodd" clip-rule="evenodd" d="M26.0701 69.5123C31.5764 67.2485 37.6075 66 43.9301 66C50.1093 66 56.01 67.1925 61.4146 69.3598C59.8409 77.6952 52.5205 84 43.7276 84C34.9884 84 27.7038 77.772 26.0701 69.5123Z" fill="black" fill-opacity="0.1"/>
<path fill-rule="evenodd" clip-rule="evenodd" d="M40.2904 3.70955C40.2904 1.66082 41.9513 0 44 0C46.0487 0 47.7095 1.66082 47.7095 3.70955V6.99299L47.8303 6.90842C49.029 6.06906 50.6812 6.36039 51.5206 7.55912C52.3599 8.75784 52.0686 10.41 50.8699 11.2494L46.5289 14.289C45.996 14.6621 45.3734 14.8118 44.7725 14.7576C44.5233 14.8104 44.2649 14.8382 44 14.8382C43.7351 14.8382 43.4767 14.8104 43.2275 14.7576C42.6266 14.8118 42.004 14.6621 41.4711 14.289L37.1301 11.2494C35.9314 10.41 35.6401 8.75784 36.4794 7.55912C37.3188 6.36039 38.971 6.06907 40.1697 6.90842L40.2904 6.99297V3.70955Z" fill="#3F3F47"/>
<path d="M39.0027 14.4621C39.1388 14.0538 39.5209 13.7783 39.9513 13.7783H48.0487C48.4791 13.7783 48.8612 14.0538 48.9973 14.4621L49.3905 15.6417C49.6064 16.2892 49.1244 16.9579 48.4419 16.9579H39.5581C38.8756 16.9579 38.3936 16.2892 38.6095 15.6417L39.0027 14.4621Z" fill="#CE2D2D"/>
<rect x="18" y="36" width="52" height="16" rx="8" fill="#DD9F76"/>
<rect x="18" y="36" width="52" height="16" rx="8" fill="black" fill-opacity="0.1"/>
<path d="M23 36C23 24.402 32.402 15 44 15V15C55.598 15 65 24.402 65 36V52C65 63.598 55.598 73 44 73V73C32.402 73 23 63.598 23 52V36Z" fill="#DD9F76"/>
<path fill-rule="evenodd" clip-rule="evenodd" d="M23.0061 35C23.2781 23.9092 32.5746 15 44.0031 15C55.4316 15 64.7281 23.9092 65.0001 35H61.9928C61.7205 25.5662 53.7691 18 44 18C34.2308 18 26.2794 25.5662 26.0072 35H23.0061Z" fill="#3F3F47"/>
<path d="M22.9999 35H25.9999V45.5C25.9999 46.3284 25.3284 47 24.4999 47V47C23.6715 47 22.9999 46.3284 22.9999 45.5V35Z" fill="#3F3F47"/>
<path d="M61.9999 35H64.9999V45.5C64.9999 46.3284 64.3284 47 63.4999 47V47C62.6715 47 61.9999 46.3284 61.9999 45.5V35Z" fill="#3F3F47"/>
<circle cx="37.5" cy="47.5" r="2.5" fill="#1D1D28"/>
<circle cx="50.5" cy="47.5" r="2.5" fill="#1D1D28"/>
<rect x="31" y="37" width="7" height="3" rx="1.5" fill="#3F3F47"/>
<rect x="50" y="37" width="7" height="3" rx="1.5" fill="#3F3F47"/>
<rect x="42" y="76" width="8" height="4" rx="2" transform="rotate(-90 42 76)" fill="#3F3F47"/>
<path d="M39 56.8333C39 56.3731 39.3731 56 39.8333 56H48.1667C48.6269 56 49 56.3731 49 56.8333V56.8333C49 59.1345 47.1345 61 44.8333 61H43.1667C40.8655 61 39 59.1345 39 56.8333V56.8333Z" fill="#F9F9F9"/>
<circle cx="33" cy="54" r="3" fill="#DD9F76"/>
<circle cx="33" cy="54" r="3" fill="black" fill-opacity="0.1"/>
<circle cx="55" cy="54" r="3" fill="#DD9F76"/>
<circle cx="55" cy="54" r="3" fill="black" fill-opacity="0.1"/>
</svg>
