<svg width="88" height="127" viewBox="0 0 88 127" fill="none" xmlns="http://www.w3.org/2000/svg">
<path d="M0 110.257C6.74621 92.5666 23.8706 80 43.9301 80C63.9897 80 81.1141 92.5666 87.8603 110.257C76.192 120.671 60.8003 127 43.9301 127C27.06 127 11.6683 120.671 0 110.257Z" fill="#2D94CE"/>
<path fill-rule="evenodd" clip-rule="evenodd" d="M26.0811 83.5078C31.5845 81.2468 37.6117 80 43.9301 80C50.1135 80 56.018 81.1941 61.4256 83.3642C59.8501 91.6975 52.5308 98 43.7395 98C34.9987 98 27.713 91.7697 26.0811 83.5078Z" fill="#E4B08D"/>
<path fill-rule="evenodd" clip-rule="evenodd" d="M26.0811 83.5078C31.5845 81.2468 37.6117 80 43.9301 80C50.1135 80 56.018 81.1941 61.4256 83.3642C59.8501 91.6975 52.5308 98 43.7395 98C34.9987 98 27.713 91.7697 26.0811 83.5078Z" fill="black" fill-opacity="0.1"/>
<path d="M55 40C55 28.402 45.598 19 34 19C22.402 19 13 28.402 13 40C13 51.598 22.402 61 34 61C45.598 61 55 51.598 55 40Z" fill="#BF8E60"/>
<path d="M75 35C75 24.5066 66.4934 16 56 16C45.5066 16 37 24.5066 37 35C37 45.4934 45.5066 54 56 54C66.4934 54 75 45.4934 75 35Z" fill="#BF8E60"/>
<rect x="17" y="60" width="53" height="16" rx="8" fill="#E4B08D"/>
<rect x="17" y="60" width="53" height="16" rx="8" fill="black" fill-opacity="0.1"/>
<path d="M23 49.5C23 38.1782 32.1782 29 43.5 29V29C54.8218 29 64 38.1782 64 49.5V71C64 79.8366 56.8366 87 48 87H39C30.1634 87 23 79.8366 23 71V49.5Z" fill="#E4B08D"/>
<path d="M46 38C46 45.732 39.732 52 32 52C24.268 52 18 45.732 18 38C18 30.268 24.268 24 32 24C39.732 24 46 30.268 46 38Z" fill="#BF8E60"/>
<path d="M58 36C58 42.0751 53.0751 47 47 47C40.9249 47 36 42.0751 36 36C36 29.9249 40.9249 25 47 25C53.0751 25 58 29.9249 58 36Z" fill="#BF8E60"/>
<path d="M69 38C69 42.4183 65.4183 46 61 46C56.5817 46 53 42.4183 53 38C53 33.5817 56.5817 30 61 30C65.4183 30 69 33.5817 69 38Z" fill="#BF8E60"/>
<rect x="29" y="57" width="7" height="3" rx="1.5" fill="#BF8E60"/>
<rect x="52" y="57" width="7" height="3" rx="1.5" fill="#BF8E60"/>
<circle cx="37.5" cy="65.5" r="2.5" fill="#1D1D28"/>
<circle cx="50.5" cy="65.5" r="2.5" fill="#1D1D28"/>
<path d="M39 71.8333C39 71.3731 39.3731 71 39.8333 71H48.1667C48.6269 71 49 71.3731 49 71.8333V71.8333C49 74.1345 47.1345 76 44.8333 76H43.1667C40.8655 76 39 74.1345 39 71.8333V71.8333Z" fill="#F9F9F9"/>
<circle cx="34" cy="71" r="2" fill="#E4B08D"/>
<circle cx="34" cy="71" r="2" fill="black" fill-opacity="0.1"/>
<circle cx="54" cy="71" r="2" fill="#E4B08D"/>
<circle cx="54" cy="71" r="2" fill="black" fill-opacity="0.1"/>
<path d="M16.2878 12.4038C16.1842 11.5056 17.2311 10.9419 17.9238 11.523L30.6608 22.2056C31.1114 22.5835 31.7893 22.4928 32.1248 22.0098L43.1786 6.0922C43.5764 5.51939 44.4236 5.51939 44.8214 6.0922L55.8752 22.0098C56.2107 22.4928 56.8886 22.5835 57.3392 22.2056L70.0762 11.523C70.7689 10.9419 71.8158 11.5056 71.7122 12.4038L69.1616 34.5092C69.0779 35.2343 68.3527 35.7023 67.6576 35.4798V35.4798C52.2702 30.5559 35.7298 30.5559 20.3424 35.4798V35.4798C19.6473 35.7023 18.9221 35.2343 18.8384 34.5092L16.2878 12.4038Z" fill="#FFD260"/>
<path fill-rule="evenodd" clip-rule="evenodd" d="M57 22.3926V32.8831C52.6977 32.1523 48.3489 31.7869 44 31.7869V5.66259C44.3112 5.66259 44.6225 5.80579 44.8214 6.0922L55.8752 22.0098C56.1337 22.382 56.5955 22.5212 57 22.3926Z" fill="black" fill-opacity="0.05"/>
<circle cx="16.5" cy="8.40942" r="1.5" fill="#FFD260"/>
<circle cx="71.5" cy="8.40942" r="1.5" fill="#FFD260"/>
<circle cx="44" cy="2.40942" r="1.5" fill="#FFD260"/>
<path fill-rule="evenodd" clip-rule="evenodd" d="M17.9238 11.523C17.231 10.942 16.1841 11.5056 16.2878 12.4038L18.8384 34.5093C18.9221 35.2343 19.6473 35.7024 20.3424 35.4799C24.0066 34.3074 27.7362 33.414 31.5 32.7999V22.4199C31.2138 22.4772 30.9041 22.4097 30.6608 22.2056L17.9238 11.523Z" fill="black" fill-opacity="0.05"/>
</svg>
