<svg width="88" height="111" viewBox="0 0 88 111" fill="none" xmlns="http://www.w3.org/2000/svg">
<path d="M0.0178223 94.2103C6.77629 76.5446 23.8883 64 43.9302 64C64.0073 64 81.1441 76.5886 87.8781 94.3032C76.2161 104.689 60.845 111 44 111C27.1048 111 11.6923 104.652 0.0178223 94.2103Z" fill="#CE2D2D"/>
<path d="M26.3416 67.5077C31.845 65.2468 37.8721 64 44.1905 64C50.374 64 56.2785 65.1941 61.6862 67.3643C60.1107 75.6975 52.7914 82 44 82C35.2592 82 27.9735 75.7697 26.3416 67.5077Z" fill="#DD9F76"/>
<path d="M26.3417 67.5084C31.8456 65.247 37.8733 64 44.1923 64C50.3751 64 56.2791 65.1938 61.6863 67.3636C60.111 75.6972 52.7916 82 44 82C35.2594 82 27.9739 75.7701 26.3417 67.5084Z" fill="black" fill-opacity="0.1"/>
<path d="M55 21C55 32.598 45.598 42 34 42C22.402 42 13 32.598 13 21C13 9.40202 22.402 0 34 0C45.598 0 55 9.40202 55 21Z" fill="#1D1D28"/>
<path d="M75 26C75 36.4934 66.4934 45 56 45C45.5066 45 37 36.4934 37 26C37 15.5066 45.5066 7 56 7C66.4934 7 75 15.5066 75 26Z" fill="#1D1D28"/>
<rect x="11" y="34" width="65" height="16" rx="8" fill="#DD9F76"/>
<rect x="11" y="34" width="65" height="16" rx="8" fill="black" fill-opacity="0.1"/>
<path d="M20 36.5C20 23.5213 30.5213 13 43.5 13V13C56.4787 13 67 23.5213 67 36.5V55C67 63.8366 59.8366 71 51 71H36C27.1634 71 20 63.8366 20 55V36.5Z" fill="#DD9F76"/>
<path d="M46 23C46 30.732 39.732 37 32 37C24.268 37 18 30.732 18 23C18 15.268 24.268 9 32 9C39.732 9 46 15.268 46 23Z" fill="#1D1D28"/>
<path d="M58 21C58 27.0751 53.0751 32 47 32C40.9249 32 36 27.0751 36 21C36 14.9249 40.9249 10 47 10C53.0751 10 58 14.9249 58 21Z" fill="#1D1D28"/>
<path d="M69.0698 22.5C69.0698 27.1944 65.2642 31 60.5698 31C55.8754 31 52.0698 27.1944 52.0698 22.5C52.0698 17.8056 55.8754 14 60.5698 14C65.2642 14 69.0698 17.8056 69.0698 22.5Z" fill="#1D1D28"/>
<rect x="31" y="39" width="7" height="3" rx="1.5" fill="#1D1D28"/>
<rect x="50" y="39" width="7" height="3" rx="1.5" fill="#1D1D28"/>
<circle cx="36.5" cy="45.5" r="2.5" fill="#1D1D28"/>
<circle cx="51.5" cy="45.5" r="2.5" fill="#1D1D28"/>
<path d="M39 52.8333C39 52.3731 39.3731 52 39.8333 52H48.1667C48.6269 52 49 52.3731 49 52.8333V52.8333C49 55.1345 47.1345 57 44.8333 57H43.1667C40.8655 57 39 55.1345 39 52.8333V52.8333Z" fill="#F9F9F9"/>
<circle cx="33" cy="52" r="2" fill="#DD9F76"/>
<circle cx="33" cy="52" r="2" fill="black" fill-opacity="0.1"/>
<circle cx="55" cy="52" r="2" fill="#DD9F76"/>
<circle cx="55" cy="52" r="2" fill="black" fill-opacity="0.1"/>
</svg>
