<svg width="88" height="121" viewBox="0 0 88 121" fill="none" xmlns="http://www.w3.org/2000/svg">
<path d="M77 87C77 93.0751 72.0751 98 66 98C59.9249 98 55 93.0751 55 87C55 80.9249 59.9249 76 66 76C72.0751 76 77 80.9249 77 87Z" fill="#F5DD9C"/>
<path d="M33 83C33 89.0751 28.0751 94 22 94C15.9249 94 11 89.0751 11 83C11 76.9249 15.9249 72 22 72C28.0751 72 33 76.9249 33 83Z" fill="#F5DD9C"/>
<path d="M17 45.5C17 30.8645 28.8645 19 43.5 19C58.1355 19 70 30.8645 70 45.5V86H17V45.5Z" fill="#F5DD9C"/>
<path fill-rule="evenodd" clip-rule="evenodd" d="M2.85769e-05 104.257C6.74623 86.5666 23.8707 74 43.9302 74C63.9897 74 81.1141 86.5666 87.8603 104.257C76.1921 114.671 60.8003 121 43.9302 121C27.0601 121 11.6683 114.671 2.85769e-05 104.257Z" fill="#85745A"/>
<path fill-rule="evenodd" clip-rule="evenodd" d="M26.0811 77.5078C31.5845 75.2468 37.6117 74 43.9301 74C50.1135 74 56.018 75.1941 61.4256 77.3642C59.8501 85.6975 52.5308 92 43.7395 92C34.9987 92 27.713 85.7697 26.0811 77.5078Z" fill="#E7A981"/>
<path fill-rule="evenodd" clip-rule="evenodd" d="M26.0811 77.5078C31.5845 75.2468 37.6117 74 43.9301 74C50.1135 74 56.018 75.1941 61.4256 77.3642C59.8501 85.6975 52.5308 92 43.7395 92C34.9987 92 27.713 85.7697 26.0811 77.5078Z" fill="black" fill-opacity="0.1"/>
<path d="M55 76H70V87.5C70 91.6421 66.6421 95 62.5 95V95C58.3579 95 55 91.6421 55 87.5V76Z" fill="#F5DD9C"/>
<path d="M17 76H30V83.5C30 87.0899 27.0899 90 23.5 90V90C19.9101 90 17 87.0899 17 83.5V76Z" fill="#F5DD9C"/>
<rect x="15" y="44" width="57" height="16" rx="8" fill="#E7A981"/>
<rect x="15" y="44" width="57" height="16" rx="8" fill="black" fill-opacity="0.1"/>
<path d="M21 45.5C21 33.0736 31.0736 23 43.5 23V23C55.9264 23 66 33.0736 66 45.5V58.5C66 70.9264 55.9264 81 43.5 81V81C31.0736 81 21 70.9264 21 58.5V45.5Z" fill="#E7A981"/>
<rect x="30" y="47" width="7" height="3" rx="1.5" fill="#1D1D28"/>
<rect x="51" y="47" width="7" height="3" rx="1.5" fill="#1D1D28"/>
<circle cx="36.5" cy="55.5" r="2.5" fill="#1D1D28"/>
<circle cx="51.5" cy="55.5" r="2.5" fill="#1D1D28"/>
<path d="M39 63.8333C39 63.3731 39.3731 63 39.8333 63H48.1667C48.6269 63 49 63.3731 49 63.8333V63.8333C49 66.1345 47.1345 68 44.8333 68H43.1667C40.8655 68 39 66.1345 39 63.8333V63.8333Z" fill="#F9F9F9"/>
<circle cx="33" cy="62" r="2" fill="#E7A981"/>
<circle cx="33" cy="62" r="2" fill="black" fill-opacity="0.1"/>
<circle cx="55" cy="62" r="2" fill="#E7A981"/>
<circle cx="55" cy="62" r="2" fill="black" fill-opacity="0.1"/>
<path fill-rule="evenodd" clip-rule="evenodd" d="M44.128 25.0891C44.0173 23.9568 44.9569 23.0177 46.0872 23.1471C57.295 24.4302 66 33.9485 66 45.5V45.5C66 46.3225 65.3206 46.989 64.5017 46.9104C53.8089 45.8836 45.2628 36.695 44.128 25.0891Z" fill="#F5DD9C"/>
<path fill-rule="evenodd" clip-rule="evenodd" d="M48.733 24.0797C49.0259 21.8552 47.1451 20.0147 44.9267 20.3499C31.2377 22.4185 20.4185 33.2378 18.3499 46.9267C18.0147 49.1451 19.8552 51.0259 22.0796 50.733C35.9355 48.9085 46.9085 37.9355 48.733 24.0797Z" fill="#F5DD9C"/>
<path d="M8.21891 19.7808C7.88632 18.9401 8.75167 18.1247 9.57121 18.5066L24.639 25.5286C25.1721 25.7771 25.8034 25.514 26.0024 24.9606L32.5599 6.72446C32.7959 6.06822 33.6142 5.84895 34.1467 6.29928L48.9436 18.8135C49.3927 19.1933 50.071 19.1054 50.4084 18.6237L59.9465 5.00858C60.4653 4.26804 61.6224 4.54152 61.7547 5.43594L65.0123 27.4483C65.1192 28.1703 64.5398 28.8101 63.8108 28.7751V28.7751C47.6733 28.0015 31.6966 32.2825 18.1079 41.0212V41.0212C17.494 41.416 16.6724 41.1516 16.4039 40.4729L8.21891 19.7808Z" fill="#FFD260"/>
<path fill-rule="evenodd" clip-rule="evenodd" d="M50.1292 18.8923L52.8443 29.0253C48.4995 29.4329 44.2042 30.2055 40.0035 31.331L33.2421 6.09692C33.5427 6.01636 33.8804 6.07413 34.1466 6.2993L48.9436 18.8135C49.2896 19.1062 49.7717 19.1212 50.1292 18.8923Z" fill="black" fill-opacity="0.05"/>
<circle cx="7.39003" cy="15.8677" r="1.5" transform="rotate(-15 7.39003 15.8677)" fill="#FFD260"/>
<circle cx="60.5159" cy="1.63268" r="1.5" transform="rotate(-15 60.5159 1.63268)" fill="#FFD260"/>
<circle cx="32.4001" cy="2.95458" r="1.5" transform="rotate(-15 32.4001 2.95458)" fill="#FFD260"/>
<path fill-rule="evenodd" clip-rule="evenodd" d="M9.57121 18.5067C8.75167 18.1247 7.88633 18.9401 8.21891 19.7809L16.4039 40.473C16.6724 41.1517 17.494 41.416 18.1079 41.0213C21.3438 38.9403 24.715 37.1121 28.1917 35.5448L25.5051 25.5185C25.2435 25.6479 24.9269 25.6629 24.639 25.5287L9.57121 18.5067Z" fill="black" fill-opacity="0.05"/>
</svg>
