<svg width="88" height="111" viewBox="0 0 88 111" fill="none" xmlns="http://www.w3.org/2000/svg">
<circle cx="66" cy="77" r="11" fill="#F5DD9C"/>
<circle cx="22" cy="73" r="11" fill="#F5DD9C"/>
<path d="M17 35.5C17 20.8645 28.8645 9 43.5 9V9C58.1355 9 70 20.8645 70 35.5V76H17V35.5Z" fill="#F5DD9C"/>
<path fill-rule="evenodd" clip-rule="evenodd" d="M2.88545e-05 94.2568C6.74623 76.5666 23.8707 64 43.9302 64C63.9897 64 81.1141 76.5666 87.8603 94.2568C76.1921 104.671 60.8003 111 43.9302 111C27.0601 111 11.6683 104.671 2.88545e-05 94.2568Z" fill="#85745A"/>
<path fill-rule="evenodd" clip-rule="evenodd" d="M26.0811 67.5078C31.5845 65.2468 37.6117 64 43.9301 64C50.1135 64 56.018 65.1941 61.4256 67.3642C59.8501 75.6975 52.5308 82 43.7395 82C34.9987 82 27.713 75.7697 26.0811 67.5078Z" fill="#E7A981"/>
<path fill-rule="evenodd" clip-rule="evenodd" d="M26.0811 67.5078C31.5845 65.2468 37.6117 64 43.9301 64C50.1135 64 56.018 65.1941 61.4256 67.3642C59.8501 75.6975 52.5308 82 43.7395 82C34.9987 82 27.713 75.7697 26.0811 67.5078Z" fill="black" fill-opacity="0.1"/>
<path d="M55 66H70V77.5C70 81.6421 66.6421 85 62.5 85V85C58.3579 85 55 81.6421 55 77.5V66Z" fill="#F5DD9C"/>
<path d="M17 66H30V73.5C30 77.0899 27.0899 80 23.5 80V80C19.9101 80 17 77.0899 17 73.5V66Z" fill="#F5DD9C"/>
<rect x="15" y="34" width="57" height="16" rx="8" fill="#E7A981"/>
<rect x="15" y="34" width="57" height="16" rx="8" fill="black" fill-opacity="0.1"/>
<path d="M21 35.5C21 23.0736 31.0736 13 43.5 13V13C55.9264 13 66 23.0736 66 35.5V48.5C66 60.9264 55.9264 71 43.5 71V71C31.0736 71 21 60.9264 21 48.5V35.5Z" fill="#E7A981"/>
<rect x="30" y="37" width="7" height="3" rx="1.5" fill="#1D1D28"/>
<rect x="51" y="37" width="7" height="3" rx="1.5" fill="#1D1D28"/>
<circle cx="36.5" cy="45.5" r="2.5" fill="#1D1D28"/>
<circle cx="51.5" cy="45.5" r="2.5" fill="#1D1D28"/>
<path d="M39 53.8333C39 53.3731 39.3731 53 39.8333 53H48.1667C48.6269 53 49 53.3731 49 53.8333V53.8333C49 56.1345 47.1345 58 44.8333 58H43.1667C40.8655 58 39 56.1345 39 53.8333V53.8333Z" fill="#F9F9F9"/>
<circle cx="33" cy="52" r="2" fill="#E7A981"/>
<circle cx="33" cy="52" r="2" fill="black" fill-opacity="0.1"/>
<circle cx="55" cy="52" r="2" fill="#E7A981"/>
<circle cx="55" cy="52" r="2" fill="black" fill-opacity="0.1"/>
<path fill-rule="evenodd" clip-rule="evenodd" d="M44.128 15.0891C44.0173 13.9568 44.9569 13.0177 46.0872 13.1471C57.295 14.4302 66 23.9485 66 35.5V35.5C66 36.3225 65.3206 36.989 64.5017 36.9104C53.8089 35.8836 45.2628 26.695 44.128 15.0891Z" fill="#F5DD9C"/>
<path fill-rule="evenodd" clip-rule="evenodd" d="M48.733 14.0797C49.0259 11.8552 47.1451 10.0147 44.9267 10.3499C31.2377 12.4185 20.4185 23.2378 18.3499 36.9267C18.0147 39.1451 19.8552 41.0259 22.0796 40.733C35.9355 38.9085 46.9085 27.9355 48.733 14.0797Z" fill="#F5DD9C"/>
</svg>
