<svg width="88" height="125" viewBox="0 0 88 125" fill="none" xmlns="http://www.w3.org/2000/svg">
<path d="M0 108.257C6.74621 90.5666 23.8706 78 43.9301 78C63.9897 78 81.1141 90.5666 87.8603 108.257C76.192 118.671 60.8003 125 43.9301 125C27.06 125 11.6683 118.671 0 108.257Z" fill="#87CE2D"/>
<path fill-rule="evenodd" clip-rule="evenodd" d="M26.0811 81.5078C31.5845 79.2468 37.6117 78 43.9301 78C50.1135 78 56.018 79.1941 61.4256 81.3642C59.8501 89.6975 52.5308 96 43.7395 96C34.9987 96 27.713 89.7697 26.0811 81.5078Z" fill="#895A3B"/>
<path fill-rule="evenodd" clip-rule="evenodd" d="M26.0811 81.5078C31.5845 79.2468 37.6117 78 43.9301 78C50.1135 78 56.018 79.1941 61.4256 81.3642C59.8501 89.6975 52.5308 96 43.7395 96C34.9987 96 27.713 89.7697 26.0811 81.5078Z" fill="black" fill-opacity="0.1"/>
<path d="M17.6205 46.2474C13.9641 41.0255 15.2332 33.8282 20.4551 30.1718L44.0928 13.6205C49.3147 9.96413 56.512 11.2332 60.1684 16.4551C63.8248 21.677 62.5557 28.8743 57.3338 32.5307L33.6961 49.082C28.4742 52.7384 21.2769 51.4693 17.6205 46.2474Z" fill="#1D1D28"/>
<path d="M72 37.5C72 44.9559 65.9559 51 58.5 51C51.0442 51 45 44.9559 45 37.5C45 30.0442 51.0442 24 58.5 24C65.9559 24 72 30.0442 72 37.5Z" fill="#1D1D28"/>
<rect x="11" y="51" width="65" height="16" rx="8" fill="#895A3B"/>
<rect x="11" y="51" width="65" height="16" rx="8" fill="black" fill-opacity="0.1"/>
<path d="M18 68C18 66.8954 18.8954 66 20 66H68C69.1046 66 70 66.8954 70 68V73C70 82.9411 61.9411 91 52 91H36C26.0589 91 18 82.9411 18 73V68Z" fill="#1D1D28"/>
<path d="M20 50.5C20 37.5213 30.5213 27 43.5 27V27C56.4787 27 67 37.5213 67 50.5V69C67 77.8366 59.8366 85 51 85H36C27.1634 85 20 77.8366 20 69V50.5Z" fill="#895A3B"/>
<path fill-rule="evenodd" clip-rule="evenodd" d="M55.8765 69C55.8765 67.8954 54.9811 67 53.8765 67H35.8765C34.772 67 33.8765 67.8954 33.8765 69V69C33.8765 70.1046 32.9811 71 31.8765 71H20.8765C19.772 71 18.8615 71.9006 19.0175 72.9941C19.9854 79.7815 25.8215 85 32.8765 85H54.8765C61.9315 85 67.7677 79.7815 68.7356 72.9941C68.8915 71.9006 67.9811 71 66.8765 71H57.8765C56.772 71 55.8765 70.1046 55.8765 69V69Z" fill="#1D1D28"/>
<path d="M70 39C70 43.9706 65.9706 48 61 48C56.0294 48 52 43.9706 52 39C52 34.0294 56.0294 30 61 30C65.9706 30 70 34.0294 70 39Z" fill="#1D1D28"/>
<path d="M61 33C61 41.8366 53.8366 49 45 49C36.1634 49 29 41.8366 29 33C29 24.1634 36.1634 17 45 17C53.8366 17 61 24.1634 61 33Z" fill="#1D1D28"/>
<path d="M34 39C34 42.866 30.866 46 27 46C23.134 46 20 42.866 20 39C20 35.134 23.134 32 27 32C30.866 32 34 35.134 34 39Z" fill="#1D1D28"/>
<rect x="30" y="54" width="10" height="4" rx="2" fill="#1D1D28"/>
<rect x="48" y="54" width="10" height="4" rx="2" fill="#1D1D28"/>
<circle cx="36.5" cy="61.5" r="2.5" fill="#1D1D28"/>
<circle cx="51.5" cy="61.5" r="2.5" fill="#1D1D28"/>
<path d="M39 72.8333C39 72.3731 39.3731 72 39.8333 72H48.1667C48.6269 72 49 72.3731 49 72.8333V72.8333C49 75.1345 47.1345 77 44.8333 77H43.1667C40.8655 77 39 75.1345 39 72.8333V72.8333Z" fill="#F9F9F9"/>
<circle cx="29" cy="66" r="2" fill="#895A3B"/>
<circle cx="29" cy="66" r="2" fill="black" fill-opacity="0.1"/>
<circle cx="59" cy="66" r="2" fill="#895A3B"/>
<circle cx="59" cy="66" r="2" fill="black" fill-opacity="0.1"/>
<path d="M26.3277 5.43604C26.4601 4.54161 27.6172 4.26814 28.1359 5.00867L37.674 18.6238C38.0115 19.1055 38.6897 19.1934 39.1388 18.8136L53.9358 6.29938C54.4683 5.84904 55.2866 6.06831 55.5226 6.72455L62.08 24.9607C62.279 25.5141 62.9103 25.7772 63.4434 25.5287L78.5112 18.5067C79.3308 18.1248 80.1961 18.9401 79.8635 19.7809L71.6785 40.473C71.41 41.1517 70.5884 41.4161 69.9745 41.0213V41.0213C56.3859 32.2825 40.4091 28.0016 24.2717 28.7752V28.7752C23.5426 28.8102 22.9633 28.1704 23.0701 27.4484L26.3277 5.43604Z" fill="#FFD260"/>
<path fill-rule="evenodd" clip-rule="evenodd" d="M63.0673 25.6215L60.3522 35.7546C56.3857 33.9351 52.2796 32.4566 48.0789 31.331L54.8403 6.09692C55.141 6.17747 55.4045 6.39635 55.5225 6.72447L62.08 24.9606C62.2333 25.3871 62.6433 25.6411 63.0673 25.6215Z" fill="black" fill-opacity="0.05"/>
<circle cx="27.5665" cy="1.63265" r="1.5" transform="rotate(15 27.5665 1.63265)" fill="#FFD260"/>
<circle cx="80.6924" cy="15.8678" r="1.5" transform="rotate(15 80.6924 15.8678)" fill="#FFD260"/>
<circle cx="55.6824" cy="2.95467" r="1.5" transform="rotate(15 55.6824 2.95467)" fill="#FFD260"/>
<path fill-rule="evenodd" clip-rule="evenodd" d="M28.1359 5.00872C27.6171 4.26819 26.46 4.54166 26.3277 5.43609L23.0701 27.4484C22.9632 28.1705 23.5426 28.8102 24.2716 28.7753C28.1144 28.5911 31.9481 28.6934 35.7426 29.0744L38.4292 19.0481C38.1379 19.0293 37.8562 18.884 37.674 18.6239L28.1359 5.00872Z" fill="black" fill-opacity="0.05"/>
</svg>
