<svg width="88" height="123" viewBox="0 0 88 123" fill="none" xmlns="http://www.w3.org/2000/svg">
<path d="M18 42.5C18 28.4167 29.4167 17 43.5 17C57.5833 17 69 28.4167 69 42.5V72.5C69 86.5833 57.5833 98 43.5 98C29.4167 98 18 86.5833 18 72.5V42.5Z" fill="url(#paint0_linear_739_1207)"/>
<path fill-rule="evenodd" clip-rule="evenodd" d="M2.85769e-05 106.257C6.74623 88.5666 23.8707 76 43.9302 76C63.9897 76 81.1141 88.5666 87.8603 106.257C76.1921 116.671 60.8003 123 43.9302 123C27.0601 123 11.6683 116.671 2.85769e-05 106.257Z" fill="#7B56B8"/>
<path fill-rule="evenodd" clip-rule="evenodd" d="M27.0119 79.137C32.2614 77.1109 37.9661 76 43.9301 76C50.4674 76 56.6929 77.3347 62.3491 79.7463C60.6252 87.8894 53.396 94 44.7395 94C35.8684 94 28.4962 87.5826 27.0119 79.137Z" fill="#F0C7AB"/>
<path fill-rule="evenodd" clip-rule="evenodd" d="M27.0119 79.137C32.2614 77.1109 37.9661 76 43.9301 76C50.4674 76 56.6929 77.3347 62.3491 79.7463C60.6252 87.8894 53.396 94 44.7395 94C35.8684 94 28.4962 87.5826 27.0119 79.137Z" fill="black" fill-opacity="0.1"/>
<rect x="17" y="49.7451" width="53" height="13.5098" rx="6.7549" fill="#F0C7AB"/>
<rect x="17" y="49.7451" width="53" height="13.5098" rx="6.7549" fill="black" fill-opacity="0.1"/>
<path d="M22 47.5C22 35.6259 31.6259 26 43.5 26V26C55.3741 26 65 35.6259 65 47.5V59.5C65 71.3741 55.3741 81 43.5 81V81C31.6259 81 22 71.3741 22 59.5V47.5Z" fill="#F0C7AB"/>
<rect x="31" y="51" width="7" height="3" rx="1.5" fill="#1D1D28"/>
<rect x="50" y="51" width="7" height="3" rx="1.5" fill="#1D1D28"/>
<circle cx="36.5" cy="57.5" r="2.5" fill="#1D1D28"/>
<circle cx="51.5" cy="57.5" r="2.5" fill="#1D1D28"/>
<circle cx="31" cy="65" r="2" fill="#F0C7AB"/>
<circle cx="31" cy="65" r="2" fill="black" fill-opacity="0.1"/>
<circle cx="57" cy="65" r="2" fill="#F0C7AB"/>
<circle cx="57" cy="65" r="2" fill="black" fill-opacity="0.1"/>
<line x1="41.0698" y1="68" x2="47.0698" y2="68" stroke="#7B56B8" stroke-width="2" stroke-linecap="round"/>
<path fill-rule="evenodd" clip-rule="evenodd" d="M42 25C30.9543 25 22 33.9543 22 45V53.1629C22 55.6732 24.2854 57.5631 26.7511 57.0917L60.3056 50.6769C63.0298 50.1561 65 47.7735 65 45C65 33.9543 56.0457 25 45 25H42Z" fill="#28283F"/>
<path d="M45.9906 45.5218L45 54.5H42L45.9906 45.5218Z" fill="#F0C7AB"/>
<path d="M62.5 43.5L62 53H60L62.5 43.5Z" fill="#F0C7AB"/>
<path d="M28.5 49.5L27.5093 58.4782H25.5093L28.5 49.5Z" fill="#F0C7AB"/>
<circle cx="35.4286" cy="56" r="6.42857" fill="#7B56B8"/>
<circle cx="52.5715" cy="56" r="6.42857" fill="#7B56B8"/>
<path fill-rule="evenodd" clip-rule="evenodd" d="M37.9248 50.074L29.5026 58.4962C29.1789 57.7287 29 56.8853 29 56C29 52.4496 31.8782 49.5714 35.4286 49.5714C36.3138 49.5714 37.1573 49.7504 37.9248 50.074Z" fill="white"/>
<path fill-rule="evenodd" clip-rule="evenodd" d="M49.9253 61.8605C50.7323 62.2254 51.6281 62.4286 52.5714 62.4286C56.1218 62.4286 59 59.5504 59 56C59 55.0567 58.7968 54.1609 58.4319 53.3539L49.9253 61.8605Z" fill="white"/>
<rect x="40.7857" y="56" width="6.42857" height="1.07143" fill="#7B56B8"/>
<path d="M13.3928 14.9885C13.2067 14.1037 14.197 13.4458 14.9405 13.9604L28.6095 23.4212C29.0931 23.7559 29.7597 23.603 30.0491 23.091L39.5859 6.22071C39.9291 5.61362 40.7727 5.53539 41.2216 6.06901L53.6981 20.8978C54.0768 21.3479 54.7601 21.3755 55.1739 20.9576L66.87 9.14448C67.5062 8.50196 68.6006 8.96652 68.5804 9.87046L68.0819 32.117C68.0656 32.8467 67.3867 33.3797 66.674 33.2223V33.2223C50.8977 29.7403 34.428 31.2677 19.561 37.5915V37.5915C18.8894 37.8772 18.1241 37.4782 17.9738 36.7639L13.3928 14.9885Z" fill="#FFD260"/>
<path fill-rule="evenodd" clip-rule="evenodd" d="M54.8534 21.1751L55.8221 31.6208C51.4708 31.2904 47.1067 31.3281 42.7765 31.7297L40.3641 5.71704C40.674 5.68831 40.9971 5.80216 41.2216 6.06896L53.6981 20.8978C53.9899 21.2446 54.4625 21.3406 54.8534 21.1751Z" fill="black" fill-opacity="0.05"/>
<circle cx="13.2353" cy="10.9916" r="1.5" transform="rotate(-5.29839 13.2353 10.9916)" fill="#FFD260"/>
<circle cx="68.0002" cy="5.91269" r="1.5" transform="rotate(-5.29839 68.0002 5.91269)" fill="#FFD260"/>
<circle cx="40.0637" cy="2.47776" r="1.5" transform="rotate(-5.29839 40.0637 2.47776)" fill="#FFD260"/>
<path fill-rule="evenodd" clip-rule="evenodd" d="M14.9405 13.9604C14.1971 13.4458 13.2067 14.1037 13.3928 14.9885L17.9738 36.7639C18.1241 37.4782 18.8894 37.8772 19.5611 37.5915C23.1013 36.0857 26.7324 34.8518 30.4235 33.8927L29.4649 23.5571C29.1852 23.6405 28.8707 23.6019 28.6095 23.4212L14.9405 13.9604Z" fill="black" fill-opacity="0.05"/>
<defs>
<linearGradient id="paint0_linear_739_1207" x1="43.5" y1="17" x2="43.5" y2="98" gradientUnits="userSpaceOnUse">
<stop stop-color="#28283F"/>
<stop offset="0.302083" stop-color="#28283F"/>
<stop offset="1" stop-color="#7B56B8"/>
</linearGradient>
</defs>
</svg>
