<svg width="88" height="111" viewBox="0 0 88 111" fill="none" xmlns="http://www.w3.org/2000/svg">
<rect x="18" y="5" width="51" height="81" rx="25.5" fill="url(#paint0_linear_438_645)"/>
<path fill-rule="evenodd" clip-rule="evenodd" d="M2.88545e-05 94.2568C6.74623 76.5666 23.8707 64 43.9302 64C63.9897 64 81.1141 76.5666 87.8603 94.2568C76.1921 104.671 60.8003 111 43.9302 111C27.0601 111 11.6683 104.671 2.88545e-05 94.2568Z" fill="#7B56B8"/>
<path fill-rule="evenodd" clip-rule="evenodd" d="M27.0119 67.137C32.2614 65.1109 37.9661 64 43.9301 64C50.4674 64 56.6929 65.3347 62.3491 67.7463C60.6252 75.8894 53.396 82 44.7395 82C35.8684 82 28.4962 75.5826 27.0119 67.137Z" fill="#F0C7AB"/>
<path fill-rule="evenodd" clip-rule="evenodd" d="M27.0119 67.137C32.2614 65.1109 37.9661 64 43.9301 64C50.4674 64 56.6929 65.3347 62.3491 67.7463C60.6252 75.8894 53.396 82 44.7395 82C35.8684 82 28.4962 75.5826 27.0119 67.137Z" fill="black" fill-opacity="0.1"/>
<rect x="17" y="37.7451" width="53" height="13.5098" rx="6.7549" fill="#F0C7AB"/>
<rect x="17" y="37.7451" width="53" height="13.5098" rx="6.7549" fill="black" fill-opacity="0.1"/>
<path d="M22 35.5C22 23.6259 31.6259 14 43.5 14V14C55.3741 14 65 23.6259 65 35.5V47.5C65 59.3741 55.3741 69 43.5 69V69C31.6259 69 22 59.3741 22 47.5V35.5Z" fill="#F0C7AB"/>
<rect x="31" y="39" width="7" height="3" rx="1.5" fill="#1D1D28"/>
<rect x="50" y="39" width="7" height="3" rx="1.5" fill="#1D1D28"/>
<circle cx="36.5" cy="45.5" r="2.5" fill="#1D1D28"/>
<circle cx="51.5" cy="45.5" r="2.5" fill="#1D1D28"/>
<circle cx="31" cy="53" r="2" fill="#F0C7AB"/>
<circle cx="31" cy="53" r="2" fill="black" fill-opacity="0.1"/>
<circle cx="57" cy="53" r="2" fill="#F0C7AB"/>
<circle cx="57" cy="53" r="2" fill="black" fill-opacity="0.1"/>
<line x1="41.0698" y1="56" x2="47.0698" y2="56" stroke="#7B56B8" stroke-width="2" stroke-linecap="round"/>
<path fill-rule="evenodd" clip-rule="evenodd" d="M42 13C30.9543 13 22 21.9543 22 33V41.1629C22 43.6732 24.2854 45.5631 26.7511 45.0917L60.3056 38.6769C63.0298 38.1561 65 35.7735 65 33C65 21.9543 56.0457 13 45 13H42Z" fill="#28283F"/>
<path d="M45.9906 33.5218L45 42.5H42L45.9906 33.5218Z" fill="#F0C7AB"/>
<path d="M62.5 31.5L62 41H60L62.5 31.5Z" fill="#F0C7AB"/>
<path d="M28.5 37.5L27.5093 46.4782H25.5093L28.5 37.5Z" fill="#F0C7AB"/>
<circle cx="35.4286" cy="44" r="6.42857" fill="#7B56B8"/>
<circle cx="52.5715" cy="44" r="6.42857" fill="#7B56B8"/>
<path fill-rule="evenodd" clip-rule="evenodd" d="M37.9248 38.074L29.5026 46.4962C29.1789 45.7287 29 44.8853 29 44C29 40.4496 31.8782 37.5714 35.4286 37.5714C36.3138 37.5714 37.1573 37.7504 37.9248 38.074Z" fill="white"/>
<path fill-rule="evenodd" clip-rule="evenodd" d="M49.9253 49.8605C50.7323 50.2254 51.6281 50.4286 52.5714 50.4286C56.1218 50.4286 59 47.5504 59 44C59 43.0567 58.7968 42.1609 58.4319 41.3539L49.9253 49.8605Z" fill="white"/>
<rect x="40.7857" y="44" width="6.42857" height="1.07143" fill="#7B56B8"/>
<defs>
<linearGradient id="paint0_linear_438_645" x1="43.5" y1="5" x2="43.5" y2="86" gradientUnits="userSpaceOnUse">
<stop stop-color="#28283F"/>
<stop offset="0.302083" stop-color="#28283F"/>
<stop offset="1" stop-color="#7B56B8"/>
</linearGradient>
</defs>
</svg>
