<svg width="88" height="119" viewBox="0 0 88 119" fill="none" xmlns="http://www.w3.org/2000/svg">
<path fill-rule="evenodd" clip-rule="evenodd" d="M2.88545e-05 102.257C6.74623 84.5666 23.8707 72 43.9302 72C63.9897 72 81.1141 84.5666 87.8603 102.257C76.1921 112.671 60.8003 119 43.9302 119C27.0601 119 11.6683 112.671 2.88545e-05 102.257Z" fill="#3DBB7E"/>
<path fill-rule="evenodd" clip-rule="evenodd" d="M26.0811 75.5078C31.5845 73.2468 37.6117 72 43.9302 72C50.1136 72 56.0181 73.1941 61.4257 75.3642C59.8502 83.6975 52.5309 90 43.7395 90C34.9987 90 27.7131 83.7697 26.0811 75.5078Z" fill="#F6D1B9"/>
<path fill-rule="evenodd" clip-rule="evenodd" d="M26.0811 75.5078C31.5845 73.2468 37.6117 72 43.9302 72C50.1136 72 56.0181 73.1941 61.4257 75.3642C59.8502 83.6975 52.5309 90 43.7395 90C34.9987 90 27.7131 83.7697 26.0811 75.5078Z" fill="black" fill-opacity="0.05"/>
<circle cx="66.5" cy="32.5" r="14.5" fill="#E374B7"/>
<circle cx="20.5" cy="32.5" r="14.5" fill="#E374B7"/>
<circle cx="65.66" cy="50.34" r="13.34" fill="#E374B7"/>
<circle cx="21.34" cy="50.34" r="13.34" fill="#E374B7"/>
<rect x="14" y="40" width="59" height="16" rx="8" fill="#F6D1B9"/>
<rect x="14" y="40" width="59" height="16" rx="8" fill="black" fill-opacity="0.05"/>
<path d="M20 44.5C20 31.5213 30.5213 21 43.5 21V21C56.4787 21 67 31.5213 67 44.5V57C67 69.1503 57.1503 79 45 79H42C29.8497 79 20 69.1503 20 57V44.5Z" fill="#F7D1B9"/>
<rect x="31" y="46" width="7" height="3" rx="1.5" fill="#E374B7"/>
<rect x="50" y="46" width="7" height="3" rx="1.5" fill="#E374B7"/>
<circle cx="37.5" cy="54.5" r="2.5" fill="#1D1D28"/>
<circle cx="50.5" cy="54.5" r="2.5" fill="#1D1D28"/>
<circle cx="32.5" cy="61.5" r="2.5" fill="#E374B7" fill-opacity="0.5"/>
<circle cx="55.5349" cy="61.5349" r="2.53491" fill="#E374B7" fill-opacity="0.5"/>
<path fill-rule="evenodd" clip-rule="evenodd" d="M44.0698 63C43.0698 62 42.5698 62 41.5698 62C40.1891 62 39.0698 62.8954 39.0698 64C39.0698 65.6569 41.3084 67 44.0698 67C46.8312 67 49.0698 65.6569 49.0698 64C49.0698 62.8954 47.9505 62 46.5698 62H46.5698C45.5698 62 45.0698 62 44.0698 63Z" fill="#DF6262"/>
<circle cx="44" cy="21" r="21" fill="#E374B7"/>
<circle cx="16.5" cy="53.5" r="2.5" fill="white"/>
<circle cx="70.5" cy="53.5" r="2.5" fill="white"/>
</svg>
