<svg width="122" height="152" viewBox="0 0 122 152" fill="none" xmlns="http://www.w3.org/2000/svg">
<path fill-rule="evenodd" clip-rule="evenodd" d="M0.95459 128.822C10.1961 104.667 33.5949 87.5132 61.0001 87.5132C88.4533 87.5132 111.886 104.727 121.094 128.95C105.148 143.152 84.1293 151.781 61.0956 151.781C37.9932 151.781 16.9182 143.1 0.95459 128.822Z" fill="#CE2D2D"/>
<path fill-rule="evenodd" clip-rule="evenodd" d="M36.9496 92.3096C44.4748 89.218 52.7163 87.5132 61.356 87.5132C69.8112 87.5132 77.8851 89.146 85.2795 92.1135C83.1251 103.508 73.1168 112.126 61.0956 112.126C49.1434 112.126 39.1811 103.607 36.9496 92.3096Z" fill="#DD9F76"/>
<path fill-rule="evenodd" clip-rule="evenodd" d="M36.9497 92.3105C44.4756 89.2183 52.7179 87.5132 61.3584 87.5132C69.8128 87.5132 77.8858 89.1456 85.2796 92.1125C83.1256 103.508 73.117 112.126 61.0955 112.126C49.1437 112.126 39.1816 103.607 36.9497 92.3105Z" fill="black" fill-opacity="0.1"/>
<circle cx="47.4216" cy="28.7153" r="28.7153" fill="#1D1D28"/>
<circle cx="77.5042" cy="35.5522" r="25.9805" fill="#1D1D28"/>
<rect x="15.9716" y="46.4914" width="88.8806" height="21.8783" rx="10.9391" fill="#DD9F76"/>
<rect x="15.9716" y="46.4914" width="88.8806" height="21.8783" rx="10.9391" fill="black" fill-opacity="0.1"/>
<path d="M28.2781 49.9098C28.2781 32.1629 42.6648 17.7761 60.4118 17.7761V17.7761C78.1588 17.7761 92.5456 32.1629 92.5456 49.9098V75.2066C92.5456 87.2897 82.7503 97.0849 70.6673 97.0849H50.1564C38.0733 97.0849 28.2781 87.2897 28.2781 75.2066V49.9098Z" fill="#DD9F76"/>
<circle cx="44.6867" cy="31.45" r="19.1435" fill="#1D1D28"/>
<circle cx="65.1977" cy="28.7153" r="15.0413" fill="#1D1D28"/>
<circle cx="83.753" cy="30.7664" r="11.6228" fill="#1D1D28"/>
<rect x="42.9517" y="58.4739" width="9.57175" height="4.10218" rx="2.05109" transform="rotate(-15 42.9517 58.4739)" fill="#1D1D28"/>
<rect x="69.9939" y="55.9965" width="9.57175" height="4.10218" rx="2.05109" transform="rotate(15 69.9939 55.9965)" fill="#1D1D28"/>
<circle cx="50.84" cy="67.0534" r="3.41848" fill="#1D1D28"/>
<circle cx="71.351" cy="67.0534" r="3.41848" fill="#1D1D28"/>
<path d="M67.9325 82.7411C67.9325 83.3704 67.4223 83.8806 66.793 83.8806H55.3981C54.7687 83.8806 54.2586 83.3704 54.2586 82.7411V82.7411C54.2586 79.5944 56.8094 77.0436 59.956 77.0436H62.235C65.3816 77.0436 67.9325 79.5944 67.9325 82.7411V82.7411Z" fill="#C78F6A"/>
<circle cx="46.0541" cy="75.9414" r="2.73479" fill="#DD9F76"/>
<circle cx="46.0541" cy="75.9414" r="2.73479" fill="black" fill-opacity="0.1"/>
<circle cx="76.1368" cy="75.9414" r="2.73479" fill="#DD9F76"/>
<circle cx="76.1368" cy="75.9414" r="2.73479" fill="black" fill-opacity="0.1"/>
</svg>
