<svg width="88" height="114" viewBox="0 0 88 114" fill="none" xmlns="http://www.w3.org/2000/svg">
<path fill-rule="evenodd" clip-rule="evenodd" d="M2.88545e-05 97.2568C6.74623 79.5666 23.8707 67 43.9302 67C63.9897 67 81.1141 79.5666 87.8603 97.2568C76.1921 107.671 60.8003 114 43.9302 114C27.0601 114 11.6683 107.671 2.88545e-05 97.2568Z" fill="#87CE2D"/>
<path fill-rule="evenodd" clip-rule="evenodd" d="M26.0811 70.5078C31.5845 68.2468 37.6117 67 43.9302 67C50.1136 67 56.0181 68.1941 61.4257 70.3642C59.8502 78.6975 52.5309 85 43.7395 85C34.9987 85 27.7131 78.7697 26.0811 70.5078Z" fill="#895A3B"/>
<path fill-rule="evenodd" clip-rule="evenodd" d="M26.0811 70.5078C31.5845 68.2468 37.6117 67 43.9302 67C50.1136 67 56.0181 68.1941 61.4257 70.3642C59.8502 78.6975 52.5309 85 43.7395 85C34.9987 85 27.7131 78.7697 26.0811 70.5078Z" fill="black" fill-opacity="0.1"/>
<rect x="11" y="25.7924" width="51.9413" height="23.085" rx="11.5425" transform="rotate(-35 11 25.7924)" fill="#1D1D28"/>
<circle cx="58.5" cy="26.5" r="13.5" fill="#1D1D28"/>
<rect x="11" y="40" width="65" height="16" rx="8" fill="#895A3B"/>
<rect x="11" y="40" width="65" height="16" rx="8" fill="black" fill-opacity="0.1"/>
<path d="M18 57C18 55.8954 18.8954 55 20 55H68C69.1046 55 70 55.8954 70 57V62C70 71.9411 61.9411 80 52 80H36C26.0589 80 18 71.9411 18 62V57Z" fill="#1D1D28"/>
<path d="M20 39.5C20 26.5213 30.5213 16 43.5 16V16C56.4787 16 67 26.5213 67 39.5V58C67 66.8366 59.8366 74 51 74H36C27.1634 74 20 66.8366 20 58V39.5Z" fill="#895A3B"/>
<path fill-rule="evenodd" clip-rule="evenodd" d="M55.8765 58C55.8765 56.8954 54.9811 56 53.8765 56H35.8765C34.772 56 33.8765 56.8954 33.8765 58V58C33.8765 59.1046 32.9811 60 31.8765 60H20.8765C19.772 60 18.8615 60.9006 19.0175 61.9941C19.9854 68.7815 25.8215 74 32.8765 74H54.8765C61.9315 74 67.7677 68.7815 68.7356 61.9941C68.8915 60.9006 67.9811 60 66.8765 60H57.8765C56.772 60 55.8765 59.1046 55.8765 58V58Z" fill="#1D1D28"/>
<circle cx="61" cy="28" r="9" fill="#1D1D28"/>
<circle cx="45" cy="22" r="16" fill="#1D1D28"/>
<circle cx="27" cy="28" r="7" fill="#1D1D28"/>
<rect x="30" y="43" width="10" height="4" rx="2" fill="#1D1D28"/>
<rect x="48" y="43" width="10" height="4" rx="2" fill="#1D1D28"/>
<circle cx="36.5" cy="50.5" r="2.5" fill="#1D1D28"/>
<circle cx="51.5" cy="50.5" r="2.5" fill="#1D1D28"/>
<path d="M39 61.8333C39 61.3731 39.3731 61 39.8333 61H48.1667C48.6269 61 49 61.3731 49 61.8333V61.8333C49 64.1345 47.1345 66 44.8333 66H43.1667C40.8655 66 39 64.1345 39 61.8333V61.8333Z" fill="#F9F9F9"/>
<circle cx="29" cy="55" r="2" fill="#895A3B"/>
<circle cx="29" cy="55" r="2" fill="black" fill-opacity="0.1"/>
<circle cx="59" cy="55" r="2" fill="#895A3B"/>
<circle cx="59" cy="55" r="2" fill="black" fill-opacity="0.1"/>
</svg>
