<svg width="88" height="113" viewBox="0 0 88 113" fill="none" xmlns="http://www.w3.org/2000/svg">
<path d="M0 96.2568C6.74621 78.5666 23.8706 66 43.9301 66C63.9897 66 81.1141 78.5666 87.8603 96.2568C76.192 106.671 60.8003 113 43.9301 113C27.06 113 11.6683 106.671 0 96.2568Z" fill="#EDC15F"/>
<path fill-rule="evenodd" clip-rule="evenodd" d="M26.0701 69.5123C31.5764 67.2485 37.6075 66 43.9301 66C50.1093 66 56.01 67.1924 61.4146 69.3598C59.8408 77.6952 52.5205 84 43.7276 84C34.9884 84 27.7038 77.772 26.0701 69.5123Z" fill="#DD9F76"/>
<path fill-rule="evenodd" clip-rule="evenodd" d="M26.0701 69.5123C31.5764 67.2485 37.6075 66 43.9301 66C50.1093 66 56.01 67.1925 61.4146 69.3598C59.8409 77.6952 52.5205 84 43.7276 84C34.9884 84 27.7038 77.772 26.0701 69.5123Z" fill="black" fill-opacity="0.1"/>
<path d="M40.2904 3.70954C40.2904 1.66082 41.9513 0 44 0C46.0487 0 47.7095 1.66082 47.7095 3.70955V6.99299L47.8303 6.90842C49.029 6.06906 50.6812 6.36039 51.5206 7.55912C52.3599 8.75784 52.0686 10.41 50.8699 11.2494L46.5289 14.289C45.996 14.6621 45.3734 14.8118 44.7725 14.7576C44.5233 14.8104 44.2649 14.8382 44 14.8382C43.7351 14.8382 43.4767 14.8104 43.2275 14.7576C42.6266 14.8118 42.004 14.6621 41.4711 14.289L37.1301 11.2494C35.9314 10.41 35.6401 8.75784 36.4794 7.55912C37.3188 6.36039 38.971 6.06907 40.1697 6.90842L40.2904 6.99297V3.70954Z" fill="#3F3F47"/>
<path d="M39.0027 14.4621C39.1388 14.0538 39.521 13.7783 39.9514 13.7783H48.0487C48.4791 13.7783 48.8613 14.0538 48.9974 14.4621L49.3906 15.6417C49.6064 16.2892 49.1245 16.9579 48.4419 16.9579H39.5582C38.8756 16.9579 38.3937 16.2892 38.6095 15.6417L39.0027 14.4621Z" fill="#CE2D2D"/>
<rect x="18" y="36" width="52" height="16" rx="8" fill="#DD9F76"/>
<rect x="18" y="36" width="52" height="16" rx="8" fill="black" fill-opacity="0.1"/>
<path d="M23 36C23 24.402 32.402 15 44 15V15C55.598 15 65 24.402 65 36V52C65 63.598 55.598 73 44 73V73C32.402 73 23 63.598 23 52V36Z" fill="#DD9F76"/>
<path d="M23.0061 35C23.2781 23.9092 32.5747 15 44.0031 15C55.4316 15 64.7282 23.9092 65.0002 35H61.9928C61.7206 25.5662 53.7691 18 44 18C34.2309 18 26.2794 25.5662 26.0072 35H23.0061Z" fill="#3F3F47"/>
<path d="M23 35H26V45.5C26 46.3284 25.3284 47 24.5 47C23.6716 47 23 46.3284 23 45.5V35Z" fill="#3F3F47"/>
<path d="M62 35H65.0002L65 45.5C65 46.3284 64.3284 47 63.5 47C62.6716 47 62 46.3284 62 45.5V35Z" fill="#3F3F47"/>
<circle cx="37.5" cy="47.5" r="2.5" fill="#1D1D28"/>
<circle cx="50.5" cy="47.5" r="2.5" fill="#1D1D28"/>
<rect x="31" y="37" width="7" height="3" rx="1.5" fill="#3F3F47"/>
<rect x="50" y="37" width="7" height="3" rx="1.5" fill="#3F3F47"/>
<rect x="42" y="76" width="8" height="4" rx="2" transform="rotate(-90 42 76)" fill="#3F3F47"/>
<path d="M39 56.8333C39 56.3731 39.3731 56 39.8333 56H48.1667C48.6269 56 49 56.3731 49 56.8333V56.8333C49 59.1345 47.1345 61 44.8333 61H43.1667C40.8655 61 39 59.1345 39 56.8333V56.8333Z" fill="#F9F9F9"/>
<circle cx="33" cy="54" r="3" fill="#DD9F76"/>
<circle cx="33" cy="54" r="3" fill="black" fill-opacity="0.1"/>
<circle cx="55" cy="54" r="3" fill="#DD9F76"/>
<circle cx="55" cy="54" r="3" fill="black" fill-opacity="0.1"/>
<path d="M20.5711 12.4254C20.4872 11.6615 21.3798 11.1874 21.9659 11.6845L32.7413 20.8251C33.1225 21.1485 33.6992 21.0747 33.9866 20.6657L43.4579 7.18849C43.7987 6.7035 44.5188 6.70753 44.8542 7.1963L54.1742 20.7786C54.457 21.1908 55.0328 21.2711 55.4176 20.952L66.2946 11.9324C66.8863 11.4419 67.7734 11.9259 67.6811 12.6889L65.408 31.4661C65.3334 32.082 64.7148 32.4764 64.125 32.284V32.284C51.0693 28.0255 37.0102 27.9469 23.9078 32.0591V32.0591C23.3158 32.2449 22.7017 31.8436 22.634 31.2269L20.5711 12.4254Z" fill="#FFD260"/>
<path fill-rule="evenodd" clip-rule="evenodd" d="M55.1284 21.1094L55.0785 30.0262C51.4252 29.3845 47.7304 29.0533 44.0339 29.0326L44.1581 6.82728C44.4226 6.82877 44.6865 6.95197 44.8542 7.19634L54.1741 20.7786C54.3921 21.0963 54.784 21.2168 55.1284 21.1094Z" fill="black" fill-opacity="0.05"/>
<ellipse cx="20.7704" cy="9.03126" rx="1.275" ry="1.275" transform="rotate(0.320412 20.7704 9.03126)" fill="#FFD260"/>
<ellipse cx="67.5197" cy="9.29273" rx="1.275" ry="1.275" transform="rotate(0.320412 67.5197 9.29273)" fill="#FFD260"/>
<ellipse cx="44.1735" cy="4.06214" rx="1.275" ry="1.275" transform="rotate(0.320412 44.1735 4.06214)" fill="#FFD260"/>
<path fill-rule="evenodd" clip-rule="evenodd" d="M21.9659 11.6845C21.3798 11.1873 20.4873 11.6614 20.5711 12.4254L22.634 31.2269C22.7017 31.8436 23.3158 32.2448 23.9078 32.0591C27.0279 31.0798 30.2022 30.3382 33.4043 29.8342L33.4536 21.0113C33.2101 21.0586 32.9472 20.9998 32.7413 20.8251L21.9659 11.6845Z" fill="black" fill-opacity="0.05"/>
</svg>
