<svg width="88" height="132" viewBox="0 0 88 132" fill="none" xmlns="http://www.w3.org/2000/svg">
<path d="M0.0178223 115.21C6.77629 97.5446 23.8883 85 43.9302 85C64.0073 85 81.1441 97.5886 87.8781 115.303C76.2161 125.689 60.845 132 44 132C27.1048 132 11.6923 125.652 0.0178223 115.21Z" fill="#CE2D2D"/>
<path d="M26.3417 88.5077C31.845 86.2468 37.8722 85 44.1906 85C50.374 85 56.2786 86.1941 61.6862 88.3643C60.1107 96.6975 52.7914 103 44.0001 103C35.2593 103 27.9736 96.7697 26.3417 88.5077Z" fill="#DD9F76"/>
<path d="M26.3418 88.5084C31.8456 86.247 37.8734 85 44.1924 85C50.3752 85 56.2792 86.1938 61.6863 88.3636C60.1111 96.6972 52.7916 103 44.0001 103C35.2595 103 27.974 96.7701 26.3418 88.5084Z" fill="black" fill-opacity="0.1"/>
<path d="M55 42C55 53.598 45.598 63 34 63C22.402 63 13 53.598 13 42C13 30.402 22.402 21 34 21C45.598 21 55 30.402 55 42Z" fill="#1D1D28"/>
<path d="M75 47C75 57.4934 66.4934 66 56 66C45.5066 66 37 57.4934 37 47C37 36.5066 45.5066 28 56 28C66.4934 28 75 36.5066 75 47Z" fill="#1D1D28"/>
<rect x="11" y="55" width="65" height="16" rx="8" fill="#DD9F76"/>
<rect x="11" y="55" width="65" height="16" rx="8" fill="black" fill-opacity="0.1"/>
<path d="M20 57.5C20 44.5213 30.5213 34 43.5 34V34C56.4787 34 67 44.5213 67 57.5V76C67 84.8366 59.8366 92 51 92H36C27.1634 92 20 84.8366 20 76V57.5Z" fill="#DD9F76"/>
<path d="M46 44C46 51.732 39.732 58 32 58C24.268 58 18 51.732 18 44C18 36.268 24.268 30 32 30C39.732 30 46 36.268 46 44Z" fill="#1D1D28"/>
<path d="M58 42C58 48.0751 53.0751 53 47 53C40.9249 53 36 48.0751 36 42C36 35.9249 40.9249 31 47 31C53.0751 31 58 35.9249 58 42Z" fill="#1D1D28"/>
<path d="M69.0698 43.5C69.0698 48.1944 65.2642 52 60.5698 52C55.8754 52 52.0698 48.1944 52.0698 43.5C52.0698 38.8056 55.8754 35 60.5698 35C65.2642 35 69.0698 38.8056 69.0698 43.5Z" fill="#1D1D28"/>
<rect x="31" y="60" width="7" height="3" rx="1.5" fill="#1D1D28"/>
<rect x="50" y="60" width="7" height="3" rx="1.5" fill="#1D1D28"/>
<circle cx="36.5" cy="66.5" r="2.5" fill="#1D1D28"/>
<circle cx="51.5" cy="66.5" r="2.5" fill="#1D1D28"/>
<path d="M39 73.8333C39 73.3731 39.3731 73 39.8333 73H48.1667C48.6269 73 49 73.3731 49 73.8333V73.8333C49 76.1345 47.1345 78 44.8333 78H43.1667C40.8655 78 39 76.1345 39 73.8333V73.8333Z" fill="#F9F9F9"/>
<circle cx="33" cy="73" r="2" fill="#DD9F76"/>
<circle cx="33" cy="73" r="2" fill="black" fill-opacity="0.1"/>
<circle cx="55" cy="73" r="2" fill="#DD9F76"/>
<circle cx="55" cy="73" r="2" fill="black" fill-opacity="0.1"/>
<path d="M27.3277 5.43604C27.4601 4.54161 28.6172 4.26814 29.1359 5.00867L38.674 18.6238C39.0115 19.1055 39.6897 19.1934 40.1388 18.8136L54.9358 6.29938C55.4683 5.84904 56.2866 6.06831 56.5226 6.72455L63.08 24.9607C63.279 25.5141 63.9103 25.7772 64.4434 25.5287L79.5112 18.5067C80.3308 18.1248 81.1961 18.9401 80.8635 19.7809L72.6785 40.473C72.41 41.1517 71.5884 41.4161 70.9745 41.0213V41.0213C57.3859 32.2825 41.4091 28.0016 25.2717 28.7752V28.7752C24.5426 28.8102 23.9633 28.1704 24.0701 27.4484L27.3277 5.43604Z" fill="#FFD260"/>
<path fill-rule="evenodd" clip-rule="evenodd" d="M64.0673 25.6215L61.3522 35.7546C57.3857 33.9351 53.2796 32.4566 49.0789 31.331L55.8403 6.09692C56.141 6.17747 56.4045 6.39635 56.5225 6.72447L63.08 24.9606C63.2333 25.3871 63.6433 25.6411 64.0673 25.6215Z" fill="black" fill-opacity="0.05"/>
<circle cx="28.5665" cy="1.63265" r="1.5" transform="rotate(15 28.5665 1.63265)" fill="#FFD260"/>
<circle cx="81.6924" cy="15.8678" r="1.5" transform="rotate(15 81.6924 15.8678)" fill="#FFD260"/>
<circle cx="56.6824" cy="2.95467" r="1.5" transform="rotate(15 56.6824 2.95467)" fill="#FFD260"/>
<path fill-rule="evenodd" clip-rule="evenodd" d="M29.1359 5.00872C28.6171 4.26819 27.46 4.54166 27.3277 5.43609L24.0701 27.4484C23.9632 28.1705 24.5426 28.8102 25.2716 28.7753C29.1144 28.5911 32.9481 28.6934 36.7426 29.0744L39.4292 19.0481C39.1379 19.0293 38.8562 18.884 38.674 18.6239L29.1359 5.00872Z" fill="black" fill-opacity="0.05"/>
</svg>
