<svg width="88" height="129" viewBox="0 0 88 129" fill="none" xmlns="http://www.w3.org/2000/svg">
<path d="M0 112.257C6.74621 94.5666 23.8706 82 43.9301 82C63.9897 82 81.1141 94.5666 87.8603 112.257C76.192 122.671 60.8003 129 43.9301 129C27.06 129 11.6683 122.671 0 112.257Z" fill="#3DBB7E"/>
<path fill-rule="evenodd" clip-rule="evenodd" d="M26.0811 85.5078C31.5845 83.2468 37.6117 82 43.9302 82C50.1136 82 56.0181 83.1941 61.4257 85.3642C59.8502 93.6975 52.5309 100 43.7395 100C34.9987 100 27.7131 93.7697 26.0811 85.5078Z" fill="#F6D1B9"/>
<path fill-rule="evenodd" clip-rule="evenodd" d="M26.0811 85.5078C31.5845 83.2468 37.6117 82 43.9302 82C50.1136 82 56.0181 83.1941 61.4257 85.3642C59.8502 93.6975 52.5309 100 43.7395 100C34.9987 100 27.7131 93.7697 26.0811 85.5078Z" fill="black" fill-opacity="0.05"/>
<path d="M81 42.5C81 50.5081 74.5081 57 66.5 57C58.4919 57 52 50.5081 52 42.5C52 34.4919 58.4919 28 66.5 28C74.5081 28 81 34.4919 81 42.5Z" fill="#E374B7"/>
<path d="M35 42.5C35 50.5081 28.5081 57 20.5 57C12.4919 57 6 50.5081 6 42.5C6 34.4919 12.4919 28 20.5 28C28.5081 28 35 34.4919 35 42.5Z" fill="#E374B7"/>
<path d="M79 60.34C79 67.7075 73.0275 73.68 65.66 73.68C58.2925 73.68 52.32 67.7075 52.32 60.34C52.32 52.9725 58.2925 47 65.66 47C73.0275 47 79 52.9725 79 60.34Z" fill="#E374B7"/>
<path d="M34.68 60.34C34.68 67.7075 28.7075 73.68 21.34 73.68C13.9725 73.68 8 67.7075 8 60.34C8 52.9725 13.9725 47 21.34 47C28.7075 47 34.68 52.9725 34.68 60.34Z" fill="#E374B7"/>
<rect x="14" y="50" width="59" height="16" rx="8" fill="#F6D1B9"/>
<rect x="14" y="50" width="59" height="16" rx="8" fill="black" fill-opacity="0.05"/>
<path d="M20 54.5C20 41.5213 30.5213 31 43.5 31V31C56.4787 31 67 41.5213 67 54.5V67C67 79.1503 57.1503 89 45 89H42C29.8497 89 20 79.1503 20 67V54.5Z" fill="#F7D1B9"/>
<rect x="31" y="56" width="7" height="3" rx="1.5" fill="#E374B7"/>
<rect x="50" y="56" width="7" height="3" rx="1.5" fill="#E374B7"/>
<circle cx="37.5" cy="64.5" r="2.5" fill="#1D1D28"/>
<circle cx="50.5" cy="64.5" r="2.5" fill="#1D1D28"/>
<circle cx="32.5" cy="71.5" r="2.5" fill="#E374B7" fill-opacity="0.5"/>
<circle cx="55.5349" cy="71.5349" r="2.53491" fill="#E374B7" fill-opacity="0.5"/>
<path fill-rule="evenodd" clip-rule="evenodd" d="M44.0698 73C43.0698 72 42.5698 72 41.5698 72C40.1891 72 39.0698 72.8954 39.0698 74C39.0698 75.6569 41.3084 77 44.0698 77C46.8312 77 49.0698 75.6569 49.0698 74C49.0698 72.8954 47.9505 72 46.5698 72H46.5698C45.5698 72 45.0698 72 44.0698 73Z" fill="#DF6262"/>
<path d="M65 31C65 42.598 55.598 52 44 52C32.402 52 23 42.598 23 31C23 19.402 32.402 10 44 10C55.598 10 65 19.402 65 31Z" fill="#E374B7"/>
<circle cx="16.5" cy="63.5" r="2.5" fill="white"/>
<circle cx="70.5" cy="63.5" r="2.5" fill="white"/>
<path d="M16.2878 12.4038C16.1842 11.5056 17.2311 10.9419 17.9238 11.523L30.6608 22.2056C31.1114 22.5835 31.7893 22.4928 32.1248 22.0098L43.1786 6.0922C43.5764 5.51939 44.4236 5.51939 44.8214 6.0922L55.8752 22.0098C56.2107 22.4928 56.8886 22.5835 57.3392 22.2056L70.0762 11.523C70.7689 10.9419 71.8158 11.5056 71.7122 12.4038L69.1616 34.5092C69.0779 35.2343 68.3527 35.7023 67.6576 35.4798V35.4798C52.2702 30.5559 35.7298 30.5559 20.3424 35.4798V35.4798C19.6473 35.7023 18.9221 35.2343 18.8384 34.5092L16.2878 12.4038Z" fill="#FFD260"/>
<path fill-rule="evenodd" clip-rule="evenodd" d="M57 22.3926V32.8831C52.6977 32.1523 48.3489 31.7869 44 31.7869V5.66259C44.3112 5.66259 44.6225 5.80579 44.8214 6.0922L55.8752 22.0098C56.1337 22.382 56.5955 22.5212 57 22.3926Z" fill="black" fill-opacity="0.05"/>
<circle cx="16.5" cy="8.40942" r="1.5" fill="#FFD260"/>
<circle cx="71.5" cy="8.40942" r="1.5" fill="#FFD260"/>
<circle cx="44" cy="2.40942" r="1.5" fill="#FFD260"/>
<path fill-rule="evenodd" clip-rule="evenodd" d="M17.9239 11.523C17.2311 10.942 16.1842 11.5056 16.2878 12.4038L18.8385 34.5093C18.9221 35.2343 19.6473 35.7024 20.3425 35.4799C24.0067 34.3074 27.7362 33.414 31.5 32.7999V22.4199C31.2138 22.4772 30.9042 22.4097 30.6608 22.2056L17.9239 11.523Z" fill="black" fill-opacity="0.05"/>
</svg>
